<?xml version="1.0" encoding="UTF-8" standalone="no"?>
<!-- Created with Inkscape (http://www.inkscape.org/) -->

<svg
   width="173mm"
   height="94mm"
   viewBox="0 0 173 94"
   version="1.1"
   id="svg1"
   inkscape:version="1.4 (e7c3feb1, 2024-10-09)"
   sodipodi:docname="log2fc.svg"
   xmlns:inkscape="http://www.inkscape.org/namespaces/inkscape"
   xmlns:sodipodi="http://sodipodi.sourceforge.net/DTD/sodipodi-0.dtd"
   xmlns="http://www.w3.org/2000/svg"
   xmlns:svg="http://www.w3.org/2000/svg">
  <sodipodi:namedview
     id="namedview1"
     pagecolor="#ffffff"
     bordercolor="#666666"
     borderopacity="1.0"
     inkscape:showpageshadow="2"
     inkscape:pageopacity="0.0"
     inkscape:pagecheckerboard="0"
     inkscape:deskcolor="#d1d1d1"
     inkscape:document-units="mm"
     inkscape:zoom="0.40897408"
     inkscape:cx="288.52684"
     inkscape:cy="165.04713"
     inkscape:window-width="1440"
     inkscape:window-height="598"
     inkscape:window-x="0"
     inkscape:window-y="25"
     inkscape:window-maximized="0"
     inkscape:current-layer="layer1" />
  <defs
     id="defs1" />
  <g
     inkscape:label="Layer 1"
     inkscape:groupmode="layer"
     id="layer1">
    <g
       id="legend_3"
       transform="matrix(0.3996546,0,0,0.3996546,-582.9616,-79.434959)"
       style="stroke-linecap:butt;stroke-linejoin:round">
      <g
         id="patch_181"
         style="stroke-linecap:butt;stroke-linejoin:round">
        <path
           d="m 1471.7,428.74928 h 408.6992 q 7,0 7,-7 V 210.15944 q 0,-7 -7,-7 H 1471.7 q -7,0 -7,7 v 211.58984 q 0,7 7,7 z"
           style="opacity:0.8;fill:#ffffff;stroke:#cccccc;stroke-linecap:butt;stroke-linejoin:miter"
           id="path2393" />
      </g>
      <g
         id="text_11"
         style="stroke-linecap:butt;stroke-linejoin:round">
        <!-- Log2 Fold Change -->
        <g
           transform="matrix(0.45,0,0,-0.45,1478.7,251.85163)"
           id="g2409"
           style="stroke-linecap:butt;stroke-linejoin:round">
          <path
             id="use2394"
             d="m 9.328125,0 v 72.265625 h 10.25 V 7.671875 H 52.09375 V 0 Z"
             style="stroke-width:0.015625;stroke-linecap:butt;stroke-linejoin:round" />
          <path
             id="use2395"
             d="m 83.695312,-1.21875 q -11.375,0 -18.171875,7.546875 -6.78125,7.546875 -6.78125,20.1875 0,12.796875 6.8125,20.234375 6.8125,7.453125 18.484375,7.453125 11.671875,0 18.468748,-7.453125 6.8125,-7.4375 6.8125,-20.140625 0,-12.984375 -6.84375,-20.40625 Q 95.648437,-1.21875 83.695312,-1.21875 Z M 83.835937,6 q 15.28125,0 15.28125,20.609375 0,20.359375 -15.078125,20.359375 -15.046875,0 -15.046875,-20.453125 Q 68.992187,6 83.835937,6 Z"
             style="stroke-width:0.015625;stroke-linecap:butt;stroke-linejoin:round" />
          <path
             id="use2396"
             d="m 124.55859,-17.625 1.125,8.34375 q 8.34375,-3.953125 16.45313,-3.953125 16.26562,0 16.26562,17.234375 v 8.359375 Q 153.07422,1.21875 140.91797,1.21875 q -9.51563,0 -15.14063,6.9375 -5.60937,6.9375 -5.60937,18.703125 0,12.109375 6.39062,19.71875 6.40625,7.625 16.5625,7.625 8.875,0 15.28125,-7.234375 v 6.0625 h 9.67188 V 14.453125 q 0,-12.453125 -1.29688,-18.4375 -1.29687,-5.984375 -4.85937,-9.78125 -6.29688,-6.6875 -19.57813,-6.6875 -9.28125,0 -17.78125,2.828125 z m 33.84375,35.984375 V 40.375 q -6.34375,6.59375 -13.82812,6.59375 -6.64063,0 -10.40625,-5.328125 -3.75,-5.3125 -3.75,-14.59375 0,-17.421875 12.26562,-17.421875 8.34375,0 15.71875,8.734375 z"
             style="stroke-width:0.015625;stroke-linecap:butt;stroke-linejoin:round" />
          <path
             id="use2397"
             d="m 185.39648,0 v 8.453125 q 4.20313,9.8125 17,21.375 l 5.51563,4.9375 q 10.64062,9.625 10.64062,19.09375 0,6.046875 -3.64062,9.515625 -3.625,3.46875 -9.98438,3.46875 -7.51562,0 -17.71875,-5.8125 v 8.5 q 9.625,4.546875 19.09375,4.546875 10.15625,0 16.29688,-5.46875 6.15625,-5.46875 6.15625,-14.5 0,-6.5 -3.10938,-11.53125 -3.09375,-5.03125 -11.53125,-12.203125 l -3.71875,-3.171875 q -11.5625,-9.8125 -13.375,-18.75 h 31.39063 V 0 Z"
             style="stroke-width:0.015625;stroke-linecap:butt;stroke-linejoin:round" />
          <path
             id="use2398"
             d=""
             style="stroke-width:0.015625;stroke-linecap:butt;stroke-linejoin:round" />
          <path
             id="use2399"
             d="m 281.30078,0 v 72.265625 h 40.375 V 64.59375 h -30.125 V 40.375 h 25.29688 V 32.8125 H 291.55078 V 0 Z"
             style="stroke-width:0.015625;stroke-linecap:butt;stroke-linejoin:round" />
          <path
             id="use2400"
             d="m 355.96094,-1.21875 q -11.375,0 -18.17188,7.546875 -6.78125,7.546875 -6.78125,20.1875 0,12.796875 6.8125,20.234375 6.8125,7.453125 18.48438,7.453125 11.67187,0 18.46875,-7.453125 6.8125,-7.4375 6.8125,-20.140625 0,-12.984375 -6.84375,-20.40625 -6.82813,-7.421875 -18.78125,-7.421875 z M 356.10156,6 q 15.28125,0 15.28125,20.609375 0,20.359375 -15.07812,20.359375 -15.04688,0 -15.04688,-20.453125 Q 341.25781,6 356.10156,6 Z"
             style="stroke-width:0.015625;stroke-linecap:butt;stroke-linejoin:round" />
          <path
             id="use2401"
             d="m 396.63672,0 v 77.09375 h 9.60937 V 0 Z"
             style="stroke-width:0.015625;stroke-linecap:butt;stroke-linejoin:round" />
          <path
             id="use2402"
             d="m 459.57422,0 v 9.96875 q -5.85938,-11.1875 -17.67188,-11.1875 -9.57812,0 -15.07812,6.984375 -5.48438,6.984375 -5.48438,19.09375 0,13.234375 6.21875,21.28125 6.23438,8.0625 16.39063,8.0625 9.42187,0 15.625,-7.234375 v 30.125 h 9.67187 V 0 Z m 0,40.375 q -7.46875,6.59375 -14.15625,6.59375 -13.82813,0 -13.82813,-21.140625 0,-18.59375 12.3125,-18.59375 8,0 15.67188,8.734375 z"
             style="stroke-width:0.015625;stroke-linecap:butt;stroke-linejoin:round" />
          <path
             id="use2403"
             d=""
             style="stroke-width:0.015625;stroke-linecap:butt;stroke-linejoin:round" />
          <path
             id="use2404"
             d="m 550.7793,-1.8125 q -16.84375,0 -26.03125,9.890625 -9.17188,9.890625 -9.17188,28 0,18.078125 9.34375,28.03125 9.35938,9.96875 26.34375,9.96875 9.71875,0 22.76563,-3.171875 v -9.625 q -14.84375,5.125 -22.90625,5.125 -11.76563,0 -18.21875,-7.96875 -6.4375,-7.953125 -6.4375,-22.453125 0,-13.8125 6.875,-21.796875 6.89062,-7.984375 18.8125,-7.984375 10.25,0 21.96875,6.296875 V 3.71875 Q 563.43555,-1.8125 550.7793,-1.8125 Z"
             style="stroke-width:0.015625;stroke-linecap:butt;stroke-linejoin:round" />
          <path
             id="use2405"
             d="m 589.3125,0 v 77.09375 h 9.60937 V 43.0625 q 7.625,11.140625 18.65625,11.140625 6.89063,0 10.98438,-4.375 4.10937,-4.375 4.10937,-11.734375 V 0 h -9.625 v 34.96875 q 0,5.90625 -1.73437,8.421875 -1.73438,2.515625 -5.73438,2.515625 -8.84375,0 -16.65625,-11.578125 V 0 Z"
             style="stroke-width:0.015625;stroke-linecap:butt;stroke-linejoin:round" />
          <path
             id="use2406"
             d="m 678.7168,6.734375 q -8.64063,-7.953125 -16.65625,-7.953125 -6.59375,0 -10.9375,4.125 -4.34375,4.125 -4.34375,10.421875 0,8.6875 7.29687,13.34375 7.29688,4.671875 20.92188,4.671875 h 2.29687 V 37.75 q 0,9.21875 -9.46875,9.21875 -7.625,0 -16.45312,-4.6875 V 50.25 q 9.71875,3.953125 18.20312,3.953125 8.89063,0 13.10938,-4.015625 4.23437,-4 4.23437,-12.4375 V 13.71875 q 0,-8.25 5.07813,-8.25 0.625,0 1.84375,0.203125 l 0.6875,-5.328125 q -3.26563,-1.5625 -7.21875,-1.5625 -6.75,0 -8.59375,7.953125 z m -1.42188,5.234375 V 25.6875 l -3.21875,0.09375 q -7.90625,0 -12.79687,-3 -4.875,-3 -4.875,-7.890625 0,-3.46875 2.4375,-5.859375 2.4375,-2.390625 5.95312,-2.390625 6,0 12.5,5.328125 z"
             style="stroke-width:0.015625;stroke-linecap:butt;stroke-linejoin:round" />
          <path
             id="use2407"
             d="m 706.59766,0 v 53.03125 h 9.60937 V 43.0625 q 7.625,11.140625 18.65625,11.140625 6.89063,0 10.98438,-4.375 4.10937,-4.375 4.10937,-11.734375 V 0 h -9.625 v 34.96875 q 0,5.90625 -1.73437,8.421875 -1.73438,2.515625 -5.73438,2.515625 -8.84375,0 -16.65625,-11.578125 V 0 Z"
             style="stroke-width:0.015625;stroke-linecap:butt;stroke-linejoin:round" />
          <path
             id="use2408"
             d="m 768.8457,-17.625 1.125,8.34375 q 8.34375,-3.953125 16.45313,-3.953125 16.26562,0 16.26562,17.234375 v 8.359375 Q 797.36133,1.21875 785.20508,1.21875 q -9.51563,0 -15.14063,6.9375 -5.60937,6.9375 -5.60937,18.703125 0,12.109375 6.39062,19.71875 6.40625,7.625 16.5625,7.625 8.875,0 15.28125,-7.234375 v 6.0625 h 9.67188 V 14.453125 q 0,-12.453125 -1.29688,-18.4375 -1.29687,-5.984375 -4.85937,-9.78125 -6.29688,-6.6875 -19.57813,-6.6875 -9.28125,0 -17.78125,2.828125 z m 33.84375,35.984375 V 40.375 q -6.34375,6.59375 -13.82812,6.59375 -6.64063,0 -10.40625,-5.328125 -3.75,-5.3125 -3.75,-14.59375 0,-17.421875 12.26562,-17.421875 8.34375,0 15.71875,8.734375 z"
             style="stroke-width:0.015625;stroke-linecap:butt;stroke-linejoin:round" />
          <path
             id="use2409"
             d="m 869.87109,1.703125 q -9.67187,-2.921875 -16.54687,-2.921875 -11.71875,0 -19.125,7.78125 -7.39063,7.796875 -7.39063,20.203125 0,12.046875 6.51563,19.765625 6.51562,7.71875 16.67187,7.71875 9.625,0 14.875,-6.84375 5.25,-6.828125 5.25,-19.421875 L 870.07422,25 h -33.45313 q 2.09375,-18.890625 18.5,-18.890625 6.01563,0 14.75,3.21875 z m -32.8125,30.53125 h 23.39063 q 0,14.78125 -11.03125,14.78125 -11.09375,0 -12.35938,-14.78125 z"
             style="stroke-width:0.015625;stroke-linecap:butt;stroke-linejoin:round" />
        </g>
      </g>
      <g
         id="line2d_4"
         style="stroke-linecap:butt;stroke-linejoin:round">
        <path
           d="m 1576.5484,293.28834 h 35 35"
           style="fill:none;stroke:#ffffff;stroke-width:1.5;stroke-linecap:square;stroke-linejoin:round"
           id="path2409" />
        <g
           id="g2410"
           style="stroke-linecap:butt;stroke-linejoin:round">
          <path
             id="use2410"
             d="m 1611.5485,297.78833 c 1.1934,0 2.3381,-0.47415 3.1819,-1.31802 0.8439,-0.84387 1.3181,-1.98857 1.3181,-3.18198 0,-1.19341 -0.4742,-2.33811 -1.3181,-3.18198 -0.8438,-0.84387 -1.9885,-1.31802 -3.1819,-1.31802 -1.1935,0 -2.3381,0.47415 -3.182,1.31802 -0.8439,0.84387 -1.318,1.98857 -1.318,3.18198 0,1.19341 0.4741,2.33811 1.318,3.18198 0.8439,0.84387 1.9885,1.31802 3.182,1.31802 z"
             style="stroke:#ffffff;stroke-linecap:butt;stroke-linejoin:round" />
        </g>
      </g>
      <g
         id="text_12"
         style="stroke-linecap:butt;stroke-linejoin:round">
        <!-- 0 to 2 -->
        <g
           transform="matrix(0.35,0,0,-0.35,1674.5484,305.53834)"
           id="g2416"
           style="stroke-linecap:butt;stroke-linejoin:round">
          <path
             id="use2411"
             d="M 31.34375,-1.8125 Q 20.171875,-1.8125 13.25,8.703125 6.34375,19.234375 6.34375,36.1875 q 0,17.078125 6.953125,27.484375 6.96875,10.40625 18.34375,10.40625 11.375,0 18.328125,-10.40625 6.96875,-10.40625 6.96875,-27.34375 0,-17.375 -6.96875,-27.765625 -6.953125,-10.375 -18.625,-10.375 z m 0.109375,7.234375 q 15.28125,0 15.28125,31.046875 0,30.375 -15.09375,30.375 -15.03125,0 -15.03125,-30.65625 0,-30.765625 14.84375,-30.765625 z"
             style="stroke-width:0.015625;stroke-linecap:butt;stroke-linejoin:round" />
          <path
             id="use2412"
             d=""
             style="stroke-width:0.015625;stroke-linecap:butt;stroke-linejoin:round" />
          <path
             id="use2413"
             d="m 120.4043,-1.21875 q -7.3125,0 -11.42188,4.1875 -4.09375,4.203125 -4.09375,11.6875 v 31.140625 h -6.640623 v 7.234375 h 6.640623 v 9.609375 l 9.60938,0.9375 V 53.03125 h 13.875 v -7.234375 h -13.875 V 16.40625 Q 114.49805,6 123.48242,6 q 1.90625,0 4.64063,0.640625 V 0 q -4.4375,-1.21875 -7.71875,-1.21875 z"
             style="stroke-width:0.015625;stroke-linecap:butt;stroke-linejoin:round" />
          <path
             id="use2414"
             d="m 162.65039,-1.21875 q -11.375,0 -18.17187,7.546875 -6.78125,7.546875 -6.78125,20.1875 0,12.796875 6.8125,20.234375 6.8125,7.453125 18.48437,7.453125 11.67188,0 18.46875,-7.453125 6.8125,-7.4375 6.8125,-20.140625 0,-12.984375 -6.84375,-20.40625 -6.82812,-7.421875 -18.78125,-7.421875 z M 162.79102,6 q 15.28125,0 15.28125,20.609375 0,20.359375 -15.07813,20.359375 -15.04687,0 -15.04687,-20.453125 Q 147.94727,6 162.79102,6 Z"
             style="stroke-width:0.015625;stroke-linecap:butt;stroke-linejoin:round" />
          <path
             id="use2415"
             d=""
             style="stroke-width:0.015625;stroke-linecap:butt;stroke-linejoin:round" />
          <path
             id="use2416"
             d="m 233.63867,0 v 8.453125 q 4.20313,9.8125 17,21.375 l 5.51563,4.9375 q 10.64062,9.625 10.64062,19.09375 0,6.046875 -3.64062,9.515625 -3.625,3.46875 -9.98438,3.46875 -7.51562,0 -17.71875,-5.8125 v 8.5 q 9.625,4.546875 19.09375,4.546875 10.15625,0 16.29688,-5.46875 6.15625,-5.46875 6.15625,-14.5 0,-6.5 -3.10938,-11.53125 -3.09375,-5.03125 -11.53125,-12.203125 l -3.71875,-3.171875 q -11.5625,-9.8125 -13.375,-18.75 H 276.6543 V 0 Z"
             style="stroke-width:0.015625;stroke-linecap:butt;stroke-linejoin:round" />
        </g>
      </g>
      <g
         id="line2d_5"
         style="stroke-linecap:butt;stroke-linejoin:round">
        <path
           d="m 1576.5484,344.51959 h 35 35"
           style="fill:none;stroke:#ffffff;stroke-width:1.5;stroke-linecap:square;stroke-linejoin:round"
           id="path2416" />
        <g
           id="g2417"
           style="stroke-linecap:butt;stroke-linejoin:round">
          <path
             id="use2417"
             d="m 1611.5485,362.51959 c 4.7736,0 9.3524,-1.89659 12.7279,-5.27208 3.3755,-3.37548 5.2721,-7.95426 5.2721,-12.72792 0,-4.77365 -1.8966,-9.35244 -5.2721,-12.72792 -3.3755,-3.37548 -7.9543,-5.27208 -12.7279,-5.27208 -4.7737,0 -9.3525,1.8966 -12.728,5.27208 -3.3754,3.37548 -5.272,7.95427 -5.272,12.72792 0,4.77366 1.8966,9.35244 5.272,12.72792 3.3755,3.37549 7.9543,5.27208 12.728,5.27208 z"
             style="stroke:#ffffff;stroke-linecap:butt;stroke-linejoin:round" />
        </g>
      </g>
      <g
         id="text_13"
         style="stroke-linecap:butt;stroke-linejoin:round">
        <!-- 2 to 4 -->
        <g
           transform="matrix(0.35,0,0,-0.35,1674.5484,356.76959)"
           id="g2423"
           style="stroke-linecap:butt;stroke-linejoin:round">
          <path
             id="use2418"
             d="m 8.296875,0 v 8.453125 q 4.203125,9.8125 17,21.375 l 5.515625,4.9375 q 10.640625,9.625 10.640625,19.09375 0,6.046875 -3.640625,9.515625 -3.625,3.46875 -9.984375,3.46875 -7.515625,0 -17.71875,-5.8125 v 8.5 q 9.625,4.546875 19.09375,4.546875 10.15625,0 16.296875,-5.46875 6.15625,-5.46875 6.15625,-14.5 0,-6.5 -3.109375,-11.53125 -3.09375,-5.03125 -11.53125,-12.203125 l -3.71875,-3.171875 q -11.5625,-9.8125 -13.375,-18.75 H 51.3125 V 0 Z"
             style="stroke-width:0.015625;stroke-linecap:butt;stroke-linejoin:round" />
          <path
             id="use2419"
             d=""
             style="stroke-width:0.015625;stroke-linecap:butt;stroke-linejoin:round" />
          <path
             id="use2420"
             d="m 120.4043,-1.21875 q -7.3125,0 -11.42188,4.1875 -4.09375,4.203125 -4.09375,11.6875 v 31.140625 h -6.640623 v 7.234375 h 6.640623 v 9.609375 l 9.60938,0.9375 V 53.03125 h 13.875 v -7.234375 h -13.875 V 16.40625 Q 114.49805,6 123.48242,6 q 1.90625,0 4.64063,0.640625 V 0 q -4.4375,-1.21875 -7.71875,-1.21875 z"
             style="stroke-width:0.015625;stroke-linecap:butt;stroke-linejoin:round" />
          <path
             id="use2421"
             d="m 162.65039,-1.21875 q -11.375,0 -18.17187,7.546875 -6.78125,7.546875 -6.78125,20.1875 0,12.796875 6.8125,20.234375 6.8125,7.453125 18.48437,7.453125 11.67188,0 18.46875,-7.453125 6.8125,-7.4375 6.8125,-20.140625 0,-12.984375 -6.84375,-20.40625 -6.82812,-7.421875 -18.78125,-7.421875 z M 162.79102,6 q 15.28125,0 15.28125,20.609375 0,20.359375 -15.07813,20.359375 -15.04687,0 -15.04687,-20.453125 Q 147.94727,6 162.79102,6 Z"
             style="stroke-width:0.015625;stroke-linecap:butt;stroke-linejoin:round" />
          <path
             id="use2422"
             d=""
             style="stroke-width:0.015625;stroke-linecap:butt;stroke-linejoin:round" />
          <path
             id="use2423"
             d="M 262.98242,0 V 20.453125 H 230.4668 v 7.28125 l 32.51562,44.53125 h 9.04688 v -43.9375 h 9.65625 v -7.875 H 272.0293 V 0 Z m -23.09375,28.328125 h 23.73438 v 32.125 z"
             style="stroke-width:0.015625;stroke-linecap:butt;stroke-linejoin:round" />
        </g>
      </g>
      <g
         id="line2d_6"
         style="stroke-linecap:butt;stroke-linejoin:round">
        <path
           d="m 1576.5484,395.75085 h 35 35"
           style="fill:none;stroke:#ffffff;stroke-width:1.5;stroke-linecap:square;stroke-linejoin:round"
           id="path2423" />
        <g
           id="g2424"
           style="stroke-linecap:butt;stroke-linejoin:round">
          <path
             id="use2424"
             d="m 1611.5485,427.25085 c 8.3539,0 16.3667,-3.31903 22.2738,-9.22613 5.9071,-5.9071 9.2262,-13.91997 9.2262,-22.27387 0,-8.35389 -3.3191,-16.36676 -9.2262,-22.27386 -5.9071,-5.9071 -13.9199,-9.22614 -22.2738,-9.22614 -8.3539,0 -16.3668,3.31904 -22.2739,9.22614 -5.9071,5.9071 -9.2261,13.91997 -9.2261,22.27386 0,8.3539 3.319,16.36677 9.2261,22.27387 5.9071,5.9071 13.92,9.22613 22.2739,9.22613 z"
             style="stroke:#ffffff;stroke-linecap:butt;stroke-linejoin:round" />
        </g>
      </g>
      <g
         id="text_14"
         style="stroke-linecap:butt;stroke-linejoin:round">
        <!-- &gt; 4 -->
        <g
           transform="matrix(0.35,0,0,-0.35,1674.5484,408.00085)"
           id="g2427"
           style="stroke-linecap:butt;stroke-linejoin:round">
          <path
             id="use2425"
             d="M 10.84375,0 68.65625,28.90625 10.84375,57.8125 V 49.75 L 52.484375,28.90625 10.84375,8.109375 Z"
             style="stroke-width:0.015625;stroke-linecap:butt;stroke-linejoin:round" />
          <path
             id="use2426"
             d=""
             style="stroke-width:0.015625;stroke-linecap:butt;stroke-linejoin:round" />
          <path
             id="use2427"
             d="m 148.77344,0 v 20.453125 h -32.51563 v 7.28125 l 32.51563,44.53125 h 9.04687 v -43.9375 h 9.65625 v -7.875 h -9.65625 V 0 Z m -23.09375,28.328125 h 23.73437 v 32.125 z"
             style="stroke-width:0.015625;stroke-linecap:butt;stroke-linejoin:round" />
        </g>
      </g>
    </g>
  </g>
</svg>
