<?xml version="1.0" encoding="UTF-8" standalone="no"?>
<svg
   width="1814.4pt"
   height="2048.313807pt"
   viewBox="0 0 1814.4 2048.313807"
   version="1.1"
   id="svg449"
   sodipodi:docname="STRING_cho_vs_plasma_localization_prot_downreg.svg"
   inkscape:version="1.4 (e7c3feb1, 2024-10-09)"
   xmlns:inkscape="http://www.inkscape.org/namespaces/inkscape"
   xmlns:sodipodi="http://sodipodi.sourceforge.net/DTD/sodipodi-0.dtd"
   xmlns="http://www.w3.org/2000/svg"
   xmlns:svg="http://www.w3.org/2000/svg"
   xmlns:rdf="http://www.w3.org/1999/02/22-rdf-syntax-ns#"
   xmlns:cc="http://creativecommons.org/ns#"
   xmlns:dc="http://purl.org/dc/elements/1.1/">
  <sodipodi:namedview
     id="namedview449"
     pagecolor="#ffffff"
     bordercolor="#666666"
     borderopacity="1.0"
     inkscape:showpageshadow="2"
     inkscape:pageopacity="0.0"
     inkscape:pagecheckerboard="0"
     inkscape:deskcolor="#d1d1d1"
     inkscape:document-units="pt"
     inkscape:zoom="0.14811178"
     inkscape:cx="445.60938"
     inkscape:cy="1309.8215"
     inkscape:window-width="1504"
     inkscape:window-height="599"
     inkscape:window-x="0"
     inkscape:window-y="25"
     inkscape:window-maximized="0"
     inkscape:current-layer="axes_1" />
  <metadata
     id="metadata1">
    <rdf:RDF>
      <cc:Work>
        <dc:type
           rdf:resource="http://purl.org/dc/dcmitype/StillImage" />
        <dc:date>2025-03-04T11:19:55.259411</dc:date>
        <dc:format>image/svg+xml</dc:format>
        <dc:creator>
          <cc:Agent>
            <dc:title>Matplotlib v3.8.0, https://matplotlib.org/</dc:title>
          </cc:Agent>
        </dc:creator>
      </cc:Work>
    </rdf:RDF>
  </metadata>
  <defs
     id="defs1">
    <style
       type="text/css"
       id="style1">*{stroke-linejoin: round; stroke-linecap: butt}</style>
  </defs>
  <g
     id="figure_1">
    <g
       id="patch_1">
      <path
         d="M 0 2048.313807  L 1814.4 2048.313807  L 1814.4 0  L 0 0  z "
         style="fill: #ffffff"
         id="path1" />
    </g>
    <g
       id="axes_1">
      <g
         id="LineCollection_1">
        <path
           d="M 801.947824 1289.174464  L 743.702118 1510.409461  "
           clip-path="url(#p1a2cebc7f5)"
           style="fill: none; stroke: #d3d3d3; stroke-width: 2.741698"
           id="path2" />
        <path
           d="M 947.041834 507.161814  L 1090.013932 227.038812  "
           clip-path="url(#p1a2cebc7f5)"
           style="fill: none; stroke: #d3d3d3; stroke-width: 1.615849"
           id="path3" />
        <path
           d="M 947.041834 507.161814  L 921.022047 517.810918  "
           clip-path="url(#p1a2cebc7f5)"
           style="fill: none; stroke: #d3d3d3; stroke-width: 3.874906"
           id="path4" />
        <path
           d="M 801.836708 863.091268  L 1093.411242 609.655103  "
           clip-path="url(#p1a2cebc7f5)"
           style="fill: none; stroke: #d3d3d3; stroke-width: 2.594528"
           id="path5" />
        <path
           d="M 801.836708 863.091268  L 907.723564 787.173264  "
           clip-path="url(#p1a2cebc7f5)"
           style="fill: none; stroke: #d3d3d3; stroke-width: 3.698302"
           id="path6" />
        <path
           d="M 934.439344 427.625773  L 879.798502 406.364174  "
           clip-path="url(#p1a2cebc7f5)"
           style="fill: none; stroke: #d3d3d3; stroke-width: 2.800566"
           id="path7" />
        <path
           d="M 462.857013 1175.793179  L 484.890989 1272.936893  "
           clip-path="url(#p1a2cebc7f5)"
           style="fill: none; stroke: #d3d3d3; stroke-width: 1.108113"
           id="path8" />
        <path
           d="M 616.212179 1319.867614  L 493.919745 1233.325925  "
           clip-path="url(#p1a2cebc7f5)"
           style="fill: none; stroke: #d3d3d3; stroke-width: 4"
           id="path9" />
        <path
           d="M 616.212179 1319.867614  L 743.702118 1510.409461  "
           clip-path="url(#p1a2cebc7f5)"
           style="fill: none; stroke: #d3d3d3; stroke-width: 2.189811"
           id="path10" />
        <path
           d="M 1140.966019 837.557015  L 1015.426827 833.444146  "
           clip-path="url(#p1a2cebc7f5)"
           style="fill: none; stroke: #d3d3d3; stroke-width: 3.838113"
           id="path11" />
        <path
           d="M 1140.966019 837.557015  L 921.618098 878.273821  "
           clip-path="url(#p1a2cebc7f5)"
           style="fill: none; stroke: #d3d3d3; stroke-width: 0.58566"
           id="path12" />
        <path
           d="M 1015.426827 833.444146  L 921.618098 878.273821  "
           clip-path="url(#p1a2cebc7f5)"
           style="fill: none; stroke: #d3d3d3; stroke-width: 3.46283"
           id="path13" />
        <path
           d="M 1015.426827 833.444146  L 784.10798 922.079192  "
           clip-path="url(#p1a2cebc7f5)"
           style="fill: none; stroke: #d3d3d3; stroke-width: 1.630566"
           id="path14" />
        <path
           d="M 924.619745 600.506515  L 1163.913596 673.419267  "
           clip-path="url(#p1a2cebc7f5)"
           style="fill: none; stroke: #d3d3d3; stroke-width: 0.681321"
           id="path15" />
        <path
           d="M 967.743343 778.911162  L 804.635029 986.224787  "
           clip-path="url(#p1a2cebc7f5)"
           style="fill: none; stroke: #d3d3d3; stroke-width: 1.946981"
           id="path16" />
        <path
           d="M 967.743343 778.911162  L 908.15425 563.34459  "
           clip-path="url(#p1a2cebc7f5)"
           style="fill: none; stroke: #d3d3d3; stroke-width: 2.476792"
           id="path17" />
        <path
           d="M 833.552481 609.2997  L 780.446812 494.20431  "
           clip-path="url(#p1a2cebc7f5)"
           style="fill: none; stroke: #d3d3d3; stroke-width: 3.389245"
           id="path18" />
        <path
           d="M 833.552481 609.2997  L 908.15425 563.34459  "
           clip-path="url(#p1a2cebc7f5)"
           style="fill: none; stroke: #d3d3d3; stroke-width: 3.985283"
           id="path19" />
        <path
           d="M 840.775088 741.576709  L 856.372732 762.393198  "
           clip-path="url(#p1a2cebc7f5)"
           style="fill: none; stroke: #d3d3d3; stroke-width: 4"
           id="path20" />
        <path
           d="M 840.775088 741.576709  L 773.84447 784.05853  "
           clip-path="url(#p1a2cebc7f5)"
           style="fill: none; stroke: #d3d3d3; stroke-width: 2.697547"
           id="path21" />
        <path
           d="M 840.775088 741.576709  L 754.503534 779.184343  "
           clip-path="url(#p1a2cebc7f5)"
           style="fill: none; stroke: #d3d3d3; stroke-width: 2.852075"
           id="path22" />
        <path
           d="M 780.446812 494.20431  L 697.88874 556.706909  "
           clip-path="url(#p1a2cebc7f5)"
           style="fill: none; stroke: #d3d3d3; stroke-width: 0.1"
           id="path23" />
        <path
           d="M 754.503534 779.184343  L 773.84447 784.05853  "
           clip-path="url(#p1a2cebc7f5)"
           style="fill: none; stroke: #d3d3d3; stroke-width: 3.698302"
           id="path24" />
        <path
           d="M 754.503534 779.184343  L 856.372732 762.393198  "
           clip-path="url(#p1a2cebc7f5)"
           style="fill: none; stroke: #d3d3d3; stroke-width: 3.396604"
           id="path25" />
        <path
           d="M 773.84447 784.05853  L 856.372732 762.393198  "
           clip-path="url(#p1a2cebc7f5)"
           style="fill: none; stroke: #d3d3d3; stroke-width: 2.874151"
           id="path26" />
        <path
           d="M 921.618098 878.273821  L 784.10798 922.079192  "
           clip-path="url(#p1a2cebc7f5)"
           style="fill: none; stroke: #d3d3d3; stroke-width: 3.617358"
           id="path27" />
        <path
           d="M 307.368058 115.710687  L 211.088199 220.67669  "
           clip-path="url(#p1a2cebc7f5)"
           style="fill: none; stroke: #d3d3d3; stroke-width: 2.395849"
           id="path28" />
        <path
           d="M 762.429061 1440.395389  L 743.702118 1510.409461  "
           clip-path="url(#p1a2cebc7f5)"
           style="fill: none; stroke: #d3d3d3; stroke-width: 2.086792"
           id="path29" />
      </g>
      <g
         id="patch_2">
        <path
           d="M 834.980389 565.104236  C 834.980389 562.254337 834.419021 559.43215 833.328412 556.799187  C 832.237803 554.166225 830.639162 551.77369 828.62398 549.758507  C 826.608797 547.743325 824.216263 546.144684 821.5833 545.054075  C 818.950337 543.963466 816.12815 543.402099 813.278251 543.402099  C 810.428353 543.402099 807.606166 543.963466 804.973203 545.054075  C 802.34024 546.144684 799.947705 547.743325 797.932523 549.758507  C 795.91734 551.77369 794.3187 554.166225 793.228091 556.799187  C 792.137482 559.43215 791.576114 562.254337 791.576114 565.104236  C 791.576114 567.954134 792.137482 570.776321 793.228091 573.409284  C 794.3187 576.042247 795.91734 578.434782 797.932523 580.449964  C 799.947705 582.465147 802.34024 584.063787 804.973203 585.154396  C 807.606166 586.245005 810.428353 586.806373 813.278251 586.806373  C 816.12815 586.806373 818.950337 586.245005 821.5833 585.154396  C 824.216263 584.063787 826.608797 582.465147 828.62398 580.449964  C 830.639162 578.434782 832.237803 576.042247 833.328412 573.409284  C 834.419021 570.776321 834.980389 567.954134 834.980389 565.104236  M 813.278251 565.104236  z "
           style="fill: #4cccf2; stroke: #000000; stroke-width: 0.5; stroke-linejoin: miter"
           id="path30" />
      </g>
      <g
         id="patch_3">
        <path
           d="M 823.649961 1289.174464  C 823.649961 1286.324566 823.088594 1283.502379 821.997985 1280.869416  C 820.907376 1278.236453 819.308735 1275.843918 817.293553 1273.828736  C 815.27837 1271.813553 812.885835 1270.214913 810.252872 1269.124304  C 807.61991 1268.033695 804.797723 1267.472327 801.947824 1267.472327  C 799.097926 1267.472327 796.275739 1268.033695 793.642776 1269.124304  C 791.009813 1270.214913 788.617278 1271.813553 786.602096 1273.828736  C 784.586913 1275.843918 782.988273 1278.236453 781.897664 1280.869416  C 780.807055 1283.502379 780.245687 1286.324566 780.245687 1289.174464  C 780.245687 1292.024363 780.807055 1294.84655 781.897664 1297.479513  C 782.988273 1300.112476 784.586913 1302.50501 786.602096 1304.520193  C 788.617278 1306.535375 791.009813 1308.134016 793.642776 1309.224625  C 796.275739 1310.315234 799.097926 1310.876602 801.947824 1310.876602  C 804.797723 1310.876602 807.61991 1310.315234 810.252872 1309.224625  C 812.885835 1308.134016 815.27837 1306.535375 817.293553 1304.520193  C 819.308735 1302.50501 820.907376 1300.112476 821.997985 1297.479513  C 823.088594 1294.84655 823.649961 1292.024363 823.649961 1289.174464  M 801.947824 1289.174464  z "
           style="fill: #b2b24c; stroke: #000000; stroke-width: 0.5; stroke-linejoin: miter"
           id="path31" />
      </g>
      <g
         id="patch_4">
        <path
           d="M 968.743971 507.161814  C 968.743971 504.311916 968.182603 501.489729 967.091995 498.856766  C 966.001386 496.223803 964.402745 493.831269 962.387562 491.816086  C 960.37238 489.800903 957.979845 488.202263 955.346882 487.111654  C 952.713919 486.021045 949.891733 485.459677 947.041834 485.459677  C 944.191935 485.459677 941.369749 486.021045 938.736786 487.111654  C 936.103823 488.202263 933.711288 489.800903 931.696105 491.816086  C 929.680923 493.831269 928.082282 496.223803 926.991673 498.856766  C 925.901064 501.489729 925.339697 504.311916 925.339697 507.161814  C 925.339697 510.011713 925.901064 512.8339 926.991673 515.466863  C 928.082282 518.099826 929.680923 520.49236 931.696105 522.507543  C 933.711288 524.522726 936.103823 526.121366 938.736786 527.211975  C 941.369749 528.302584 944.191935 528.863952 947.041834 528.863952  C 949.891733 528.863952 952.713919 528.302584 955.346882 527.211975  C 957.979845 526.121366 960.37238 524.522726 962.387562 522.507543  C 964.402745 520.49236 966.001386 518.099826 967.091995 515.466863  C 968.182603 512.8339 968.743971 510.011713 968.743971 507.161814  M 947.041834 507.161814  z "
           style="fill: #808000; stroke: #000000; stroke-width: 0.5; stroke-linejoin: miter"
           id="path32" />
      </g>
      <g
         id="patch_5">
        <path
           d="M 1111.716069 227.038812  C 1111.716069 224.188914 1111.154701 221.366727 1110.064092 218.733764  C 1108.973483 216.100801 1107.374843 213.708266 1105.35966 211.693084  C 1103.344478 209.677901 1100.951943 208.079261 1098.31898 206.988652  C 1095.686017 205.898043 1092.86383 205.336675 1090.013932 205.336675  C 1087.164033 205.336675 1084.341846 205.898043 1081.708883 206.988652  C 1079.07592 208.079261 1076.683386 209.677901 1074.668203 211.693084  C 1072.653021 213.708266 1071.05438 216.100801 1069.963771 218.733764  C 1068.873162 221.366727 1068.311794 224.188914 1068.311794 227.038812  C 1068.311794 229.888711 1068.873162 232.710898 1069.963771 235.343861  C 1071.05438 237.976824 1072.653021 240.369358 1074.668203 242.384541  C 1076.683386 244.399723 1079.07592 245.998364 1081.708883 247.088973  C 1084.341846 248.179582 1087.164033 248.74095 1090.013932 248.74095  C 1092.86383 248.74095 1095.686017 248.179582 1098.31898 247.088973  C 1100.951943 245.998364 1103.344478 244.399723 1105.35966 242.384541  C 1107.374843 240.369358 1108.973483 237.976824 1110.064092 235.343861  C 1111.154701 232.710898 1111.716069 229.888711 1111.716069 227.038812  M 1090.013932 227.038812  z "
           style="fill: #80e6cc; stroke: #000000; stroke-width: 0.5; stroke-linejoin: miter"
           id="path33" />
      </g>
      <g
         id="patch_6">
        <path
           d="M 823.538846 863.091268  C 823.538846 860.241369 822.977478 857.419182 821.886869 854.78622  C 820.79626 852.153257 819.197619 849.760722 817.182437 847.745539  C 815.167254 845.730357 812.77472 844.131716 810.141757 843.041107  C 807.508794 841.950498 804.686607 841.389131 801.836708 841.389131  C 798.98681 841.389131 796.164623 841.950498 793.53166 843.041107  C 790.898697 844.131716 788.506162 845.730357 786.49098 847.745539  C 784.475797 849.760722 782.877157 852.153257 781.786548 854.78622  C 780.695939 857.419182 780.134571 860.241369 780.134571 863.091268  C 780.134571 865.941167 780.695939 868.763353 781.786548 871.396316  C 782.877157 874.029279 784.475797 876.421814 786.49098 878.436996  C 788.506162 880.452179 790.898697 882.05082 793.53166 883.141428  C 796.164623 884.232037 798.98681 884.793405 801.836708 884.793405  C 804.686607 884.793405 807.508794 884.232037 810.141757 883.141428  C 812.77472 882.05082 815.167254 880.452179 817.182437 878.436996  C 819.197619 876.421814 820.79626 874.029279 821.886869 871.396316  C 822.977478 868.763353 823.538846 865.941167 823.538846 863.091268  M 801.836708 863.091268  z "
           style="fill: #4cccf2; stroke: #000000; stroke-width: 0.5; stroke-linejoin: miter"
           id="path34" />
      </g>
      <g
         id="patch_7">
        <path
           d="M 929.425701 787.173264  C 929.425701 784.323366 928.864333 781.501179 927.773724 778.868216  C 926.683115 776.235253 925.084475 773.842718 923.069292 771.827536  C 921.05411 769.812353 918.661575 768.213713 916.028612 767.123104  C 913.395649 766.032495 910.573462 765.471127 907.723564 765.471127  C 904.873665 765.471127 902.051478 766.032495 899.418515 767.123104  C 896.785552 768.213713 894.393018 769.812353 892.377835 771.827536  C 890.362653 773.842718 888.764012 776.235253 887.673403 778.868216  C 886.582794 781.501179 886.021426 784.323366 886.021426 787.173264  C 886.021426 790.023163 886.582794 792.84535 887.673403 795.478313  C 888.764012 798.111276 890.362653 800.50381 892.377835 802.518993  C 894.393018 804.534175 896.785552 806.132816 899.418515 807.223425  C 902.051478 808.314034 904.873665 808.875402 907.723564 808.875402  C 910.573462 808.875402 913.395649 808.314034 916.028612 807.223425  C 918.661575 806.132816 921.05411 804.534175 923.069292 802.518993  C 925.084475 800.50381 926.683115 798.111276 927.773724 795.478313  C 928.864333 792.84535 929.425701 790.023163 929.425701 787.173264  M 907.723564 787.173264  z "
           style="fill: #4cccf2; stroke: #000000; stroke-width: 0.5; stroke-linejoin: miter"
           id="path35" />
      </g>
      <g
         id="patch_8">
        <path
           d="M 972.418084 427.625773  C 972.418084 422.63845 971.43569 417.699623 969.527125 413.091938  C 967.618559 408.484253 964.820938 404.297317 961.294369 400.770748  C 957.767799 397.244178 953.580864 394.446557 948.973178 392.537992  C 944.365493 390.629426 939.426666 389.647032 934.439344 389.647032  C 929.452021 389.647032 924.513194 390.629426 919.905509 392.537992  C 915.297824 394.446557 911.110888 397.244178 907.584319 400.770748  C 904.057749 404.297317 901.260128 408.484253 899.351563 413.091938  C 897.442997 417.699623 896.460603 422.63845 896.460603 427.625773  C 896.460603 432.613095 897.442997 437.551922 899.351563 442.159607  C 901.260128 446.767293 904.057749 450.954228 907.584319 454.480798  C 911.110888 458.007367 915.297824 460.804988 919.905509 462.713554  C 924.513194 464.622119 929.452021 465.604513 934.439344 465.604513  C 939.426666 465.604513 944.365493 464.622119 948.973178 462.713554  C 953.580864 460.804988 957.767799 458.007367 961.294369 454.480798  C 964.820938 450.954228 967.618559 446.767293 969.527125 442.159607  C 971.43569 437.551922 972.418084 432.613095 972.418084 427.625773  M 934.439344 427.625773  z "
           style="fill: #808000; stroke: #000000; stroke-width: 0.5; stroke-linejoin: miter"
           id="path36" />
      </g>
      <g
         id="patch_9">
        <path
           d="M 586.904408 671.623887  C 586.904408 668.773988 586.34304 665.951801 585.252431 663.318839  C 584.161822 660.685876 582.563182 658.293341 580.547999 656.278158  C 578.532817 654.262976 576.140282 652.664335 573.507319 651.573726  C 570.874356 650.483117 568.052169 649.92175 565.202271 649.92175  C 562.352372 649.92175 559.530185 650.483117 556.897222 651.573726  C 554.264259 652.664335 551.871725 654.262976 549.856542 656.278158  C 547.84136 658.293341 546.242719 660.685876 545.15211 663.318839  C 544.061501 665.951801 543.500133 668.773988 543.500133 671.623887  C 543.500133 674.473786 544.061501 677.295972 545.15211 679.928935  C 546.242719 682.561898 547.84136 684.954433 549.856542 686.969615  C 551.871725 688.984798 554.264259 690.583439 556.897222 691.674047  C 559.530185 692.764656 562.352372 693.326024 565.202271 693.326024  C 568.052169 693.326024 570.874356 692.764656 573.507319 691.674047  C 576.140282 690.583439 578.532817 688.984798 580.547999 686.969615  C 582.563182 684.954433 584.161822 682.561898 585.252431 679.928935  C 586.34304 677.295972 586.904408 674.473786 586.904408 671.623887  M 565.202271 671.623887  z "
           style="fill: #ff9900; stroke: #000000; stroke-width: 0.5; stroke-linejoin: miter"
           id="path37" />
      </g>
      <g
         id="patch_10">
        <path
           d="M 1131.389982 609.655103  C 1131.389982 604.66778 1130.407589 599.728953 1128.499023 595.121268  C 1126.590457 590.513583 1123.792836 586.326647 1120.266267 582.800078  C 1116.739697 579.273508 1112.552762 576.475887 1107.945077 574.567322  C 1103.337392 572.658756 1098.398564 571.676362 1093.411242 571.676362  C 1088.423919 571.676362 1083.485092 572.658756 1078.877407 574.567322  C 1074.269722 576.475887 1070.082787 579.273508 1066.556217 582.800078  C 1063.029648 586.326647 1060.232027 590.513583 1058.323461 595.121268  C 1056.414895 599.728953 1055.432502 604.66778 1055.432502 609.655103  C 1055.432502 614.642425 1056.414895 619.581252 1058.323461 624.188937  C 1060.232027 628.796623 1063.029648 632.983558 1066.556217 636.510128  C 1070.082787 640.036697 1074.269722 642.834318 1078.877407 644.742884  C 1083.485092 646.651449 1088.423919 647.633843 1093.411242 647.633843  C 1098.398564 647.633843 1103.337392 646.651449 1107.945077 644.742884  C 1112.552762 642.834318 1116.739697 640.036697 1120.266267 636.510128  C 1123.792836 632.983558 1126.590457 628.796623 1128.499023 624.188937  C 1130.407589 619.581252 1131.389982 614.642425 1131.389982 609.655103  M 1093.411242 609.655103  z "
           style="fill: #808000; stroke: #000000; stroke-width: 0.5; stroke-linejoin: miter"
           id="path38" />
      </g>
      <g
         id="patch_11">
        <path
           d="M 468.282547 1175.793179  C 468.282547 1175.080704 468.142205 1174.375157 467.869553 1173.716917  C 467.596901 1173.058676 467.197241 1172.460542 466.693445 1171.956747  C 466.189649 1171.452951 465.591516 1171.053291 464.933275 1170.780639  C 464.275034 1170.507986 463.569487 1170.367644 462.857013 1170.367644  C 462.144538 1170.367644 461.438991 1170.507986 460.780751 1170.780639  C 460.12251 1171.053291 459.524376 1171.452951 459.020581 1171.956747  C 458.516785 1172.460542 458.117125 1173.058676 457.844473 1173.716917  C 457.57182 1174.375157 457.431479 1175.080704 457.431479 1175.793179  C 457.431479 1176.505653 457.57182 1177.2112 457.844473 1177.869441  C 458.117125 1178.527682 458.516785 1179.125815 459.020581 1179.629611  C 459.524376 1180.133406 460.12251 1180.533067 460.780751 1180.805719  C 461.438991 1181.078371 462.144538 1181.218713 462.857013 1181.218713  C 463.569487 1181.218713 464.275034 1181.078371 464.933275 1180.805719  C 465.591516 1180.533067 466.189649 1180.133406 466.693445 1179.629611  C 467.197241 1179.125815 467.596901 1178.527682 467.869553 1177.869441  C 468.142205 1177.2112 468.282547 1176.505653 468.282547 1175.793179  M 462.857013 1175.793179  z "
           style="fill: #b2b24c; stroke: #000000; stroke-width: 0.5; stroke-linejoin: miter"
           id="path39" />
      </g>
      <g
         id="patch_12">
        <path
           d="M 153.689427 1558.563474  C 153.689427 1548.494749 149.685376 1538.828113 142.565712 1531.708449  C 135.446048 1524.588785 125.779412 1520.584734 115.710687 1520.584734  C 105.641962 1520.584734 95.975326 1524.588785 88.855662 1531.708449  C 81.735998 1538.828113 77.731946 1548.494749 77.731946 1558.563474  L 115.710687 1558.563474  z "
           style="fill: #b2b24c; stroke: #000000; stroke-width: 0.5; stroke-linejoin: miter"
           id="path40" />
      </g>
      <g
         id="patch_13">
        <path
           d="M 77.731946 1558.563474  C 77.731946 1568.632199 81.735998 1578.298835 88.855662 1585.418499  C 95.975326 1592.538163 105.641962 1596.542215 115.710687 1596.542215  C 125.779412 1596.542215 135.446048 1592.538163 142.565712 1585.418499  C 149.685376 1578.298835 153.689427 1568.632199 153.689427 1558.563474  L 115.710687 1558.563474  z "
           style="fill: #808000; stroke: #000000; stroke-width: 0.5; stroke-linejoin: miter"
           id="path41" />
      </g>
      <g
         id="patch_14">
        <path
           d="M 654.19092 1319.867614  C 654.19092 1314.880291 653.208526 1309.941464 651.29996 1305.333779  C 649.391395 1300.726094 646.593774 1296.539159 643.067204 1293.012589  C 639.540635 1289.486019 635.353699 1286.688399 630.746014 1284.779833  C 626.138329 1282.871267 621.199502 1281.888874 616.212179 1281.888874  C 611.224857 1281.888874 606.28603 1282.871267 601.678345 1284.779833  C 597.070659 1286.688399 592.883724 1289.486019 589.357154 1293.012589  C 585.830585 1296.539159 583.032964 1300.726094 581.124398 1305.333779  C 579.215833 1309.941464 578.233439 1314.880291 578.233439 1319.867614  C 578.233439 1324.854936 579.215833 1329.793763 581.124398 1334.401449  C 583.032964 1339.009134 585.830585 1343.196069 589.357154 1346.722639  C 592.883724 1350.249208 597.070659 1353.046829 601.678345 1354.955395  C 606.28603 1356.863961 611.224857 1357.846354 616.212179 1357.846354  C 621.199502 1357.846354 626.138329 1356.863961 630.746014 1354.955395  C 635.353699 1353.046829 639.540635 1350.249208 643.067204 1346.722639  C 646.593774 1343.196069 649.391395 1339.009134 651.29996 1334.401449  C 653.208526 1329.793763 654.19092 1324.854936 654.19092 1319.867614  M 616.212179 1319.867614  z "
           style="fill: #4cccf2; stroke: #000000; stroke-width: 0.5; stroke-linejoin: miter"
           id="path42" />
      </g>
      <g
         id="patch_15">
        <path
           d="M 506.593127 1272.936893  C 506.593127 1270.086995 506.031759 1267.264808 504.94115 1264.631845  C 503.850541 1261.998882 502.2519 1259.606347 500.236718 1257.591165  C 498.221535 1255.575982 495.829001 1253.977342 493.196038 1252.886733  C 490.563075 1251.796124 487.740888 1251.234756 484.890989 1251.234756  C 482.041091 1251.234756 479.218904 1251.796124 476.585941 1252.886733  C 473.952978 1253.977342 471.560443 1255.575982 469.545261 1257.591165  C 467.530078 1259.606347 465.931438 1261.998882 464.840829 1264.631845  C 463.75022 1267.264808 463.188852 1270.086995 463.188852 1272.936893  C 463.188852 1275.786792 463.75022 1278.608979 464.840829 1281.241942  C 465.931438 1283.874905 467.530078 1286.267439 469.545261 1288.282622  C 471.560443 1290.297804 473.952978 1291.896445 476.585941 1292.987054  C 479.218904 1294.077663 482.041091 1294.639031 484.890989 1294.639031  C 487.740888 1294.639031 490.563075 1294.077663 493.196038 1292.987054  C 495.829001 1291.896445 498.221535 1290.297804 500.236718 1288.282622  C 502.2519 1286.267439 503.850541 1283.874905 504.94115 1281.241942  C 506.031759 1278.608979 506.593127 1275.786792 506.593127 1272.936893  M 484.890989 1272.936893  z "
           style="fill: #b2b24c; stroke: #000000; stroke-width: 0.5; stroke-linejoin: miter"
           id="path43" />
      </g>
      <g
         id="patch_16">
        <path
           d="M 651.482344 973.997705  C 651.482344 971.147806 650.920976 968.325619 649.830367 965.692656  C 648.739758 963.059693 647.141117 960.667159 645.125935 958.651976  C 643.110752 956.636794 640.718218 955.038153 638.085255 953.947544  C 635.452292 952.856935 632.630105 952.295567 629.780206 952.295567  C 626.930308 952.295567 624.108121 952.856935 621.475158 953.947544  C 618.842195 955.038153 616.44966 956.636794 614.434478 958.651976  C 612.419295 960.667159 610.820655 963.059693 609.730046 965.692656  C 608.639437 968.325619 608.078069 971.147806 608.078069 973.997705  C 608.078069 976.847603 608.639437 979.66979 609.730046 982.302753  C 610.820655 984.935716 612.419295 987.328251 614.434478 989.343433  C 616.44966 991.358616 618.842195 992.957256 621.475158 994.047865  C 624.108121 995.138474 626.930308 995.699842 629.780206 995.699842  C 632.630105 995.699842 635.452292 995.138474 638.085255 994.047865  C 640.718218 992.957256 643.110752 991.358616 645.125935 989.343433  C 647.141117 987.328251 648.739758 984.935716 649.830367 982.302753  C 650.920976 979.66979 651.482344 976.847603 651.482344 973.997705  M 629.780206 973.997705  z "
           style="fill: #b2b24c; stroke: #000000; stroke-width: 0.5; stroke-linejoin: miter"
           id="path44" />
      </g>
      <g
         id="patch_17">
        <path
           d="M 531.898486 1233.325925  C 531.898486 1228.338603 530.916092 1223.399776 529.007526 1218.792091  C 527.098961 1214.184405 524.30134 1209.99747 520.77477 1206.4709  C 517.248201 1202.944331 513.061265 1200.14671 508.45358 1198.238144  C 503.845895 1196.329579 498.907068 1195.347185 493.919745 1195.347185  C 488.932423 1195.347185 483.993596 1196.329579 479.385911 1198.238144  C 474.778226 1200.14671 470.59129 1202.944331 467.064721 1206.4709  C 463.538151 1209.99747 460.74053 1214.184405 458.831965 1218.792091  C 456.923399 1223.399776 455.941005 1228.338603 455.941005 1233.325925  C 455.941005 1238.313248 456.923399 1243.252075 458.831965 1247.85976  C 460.74053 1252.467445 463.538151 1256.654381 467.064721 1260.18095  C 470.59129 1263.70752 474.778226 1266.505141 479.385911 1268.413706  C 483.993596 1270.322272 488.932423 1271.304666 493.919745 1271.304666  C 498.907068 1271.304666 503.845895 1270.322272 508.45358 1268.413706  C 513.061265 1266.505141 517.248201 1263.70752 520.77477 1260.18095  C 524.30134 1256.654381 527.098961 1252.467445 529.007526 1247.85976  C 530.916092 1243.252075 531.898486 1238.313248 531.898486 1233.325925  M 493.919745 1233.325925  z "
           style="fill: #4cccf2; stroke: #000000; stroke-width: 0.5; stroke-linejoin: miter"
           id="path45" />
      </g>
      <g
         id="patch_18">
        <path
           d="M 298.865634 993.011371  C 298.865634 982.942646 294.861582 973.27601 287.741919 966.156347  C 280.622255 959.036683 270.955619 955.032631 260.886894 955.032631  C 250.818169 955.032631 241.151533 959.036683 234.031869 966.156347  C 226.912205 973.27601 222.908153 982.942646 222.908153 993.011371  L 260.886894 993.011371  z "
           style="fill: #66b2e6; stroke: #000000; stroke-width: 0.5; stroke-linejoin: miter"
           id="path46" />
      </g>
      <g
         id="patch_19">
        <path
           d="M 222.908153 993.011371  C 222.908153 1003.080097 226.912205 1012.746733 234.031869 1019.866396  C 241.151533 1026.98606 250.818169 1030.990112 260.886894 1030.990112  C 270.955619 1030.990112 280.622255 1026.98606 287.741919 1019.866396  C 294.861582 1012.746733 298.865634 1003.080097 298.865634 993.011371  L 260.886894 993.011371  z "
           style="fill: #808000; stroke: #000000; stroke-width: 0.5; stroke-linejoin: miter"
           id="path47" />
      </g>
      <g
         id="patch_20">
        <path
           d="M 1178.944759 837.557015  C 1178.944759 832.569692 1177.962365 827.630865 1176.0538 823.02318  C 1174.145234 818.415495 1171.347613 814.228559 1167.821044 810.70199  C 1164.294474 807.17542 1160.107539 804.3778 1155.499853 802.469234  C 1150.892168 800.560668 1145.953341 799.578274 1140.966019 799.578274  C 1135.978696 799.578274 1131.039869 800.560668 1126.432184 802.469234  C 1121.824499 804.3778 1117.637563 807.17542 1114.110994 810.70199  C 1110.584424 814.228559 1107.786803 818.415495 1105.878238 823.02318  C 1103.969672 827.630865 1102.987278 832.569692 1102.987278 837.557015  C 1102.987278 842.544337 1103.969672 847.483164 1105.878238 852.09085  C 1107.786803 856.698535 1110.584424 860.88547 1114.110994 864.41204  C 1117.637563 867.938609 1121.824499 870.73623 1126.432184 872.644796  C 1131.039869 874.553361 1135.978696 875.535755 1140.966019 875.535755  C 1145.953341 875.535755 1150.892168 874.553361 1155.499853 872.644796  C 1160.107539 870.73623 1164.294474 867.938609 1167.821044 864.41204  C 1171.347613 860.88547 1174.145234 856.698535 1176.0538 852.09085  C 1177.962365 847.483164 1178.944759 842.544337 1178.944759 837.557015  M 1140.966019 837.557015  z "
           style="fill: #b2b24c; stroke: #000000; stroke-width: 0.5; stroke-linejoin: miter"
           id="path48" />
      </g>
      <g
         id="patch_21">
        <path
           d="M 702.535368 671.370998  C 702.535368 668.5211 701.974 665.698913 700.883391 663.06595  C 699.792782 660.432987 698.194142 658.040452 696.178959 656.02527  C 694.163776 654.010087 691.771242 652.411447 689.138279 651.320838  C 686.505316 650.230229 683.683129 649.668861 680.833231 649.668861  C 677.983332 649.668861 675.161145 650.230229 672.528182 651.320838  C 669.895219 652.411447 667.502685 654.010087 665.487502 656.02527  C 663.472319 658.040452 661.873679 660.432987 660.78307 663.06595  C 659.692461 665.698913 659.131093 668.5211 659.131093 671.370998  C 659.131093 674.220897 659.692461 677.043084 660.78307 679.676047  C 661.873679 682.30901 663.472319 684.701544 665.487502 686.716727  C 667.502685 688.731909 669.895219 690.33055 672.528182 691.421159  C 675.161145 692.511768 677.983332 693.073136 680.833231 693.073136  C 683.683129 693.073136 686.505316 692.511768 689.138279 691.421159  C 691.771242 690.33055 694.163776 688.731909 696.178959 686.716727  C 698.194142 684.701544 699.792782 682.30901 700.883391 679.676047  C 701.974 677.043084 702.535368 674.220897 702.535368 671.370998  M 680.833231 671.370998  z "
           style="fill: #b20066; stroke: #000000; stroke-width: 0.5; stroke-linejoin: miter"
           id="path49" />
      </g>
      <g
         id="patch_22">
        <path
           d="M 1037.128965 833.444146  C 1037.128965 830.594247 1036.567597 827.772061 1035.476988 825.139098  C 1034.386379 822.506135 1032.787739 820.1136 1030.772556 818.098417  C 1028.757373 816.083235 1026.364839 814.484594 1023.731876 813.393985  C 1021.098913 812.303376 1018.276726 811.742009 1015.426827 811.742009  C 1012.576929 811.742009 1009.754742 812.303376 1007.121779 813.393985  C 1004.488816 814.484594 1002.096282 816.083235 1000.081099 818.098417  C 998.065916 820.1136 996.467276 822.506135 995.376667 825.139098  C 994.286058 827.772061 993.72469 830.594247 993.72469 833.444146  C 993.72469 836.294045 994.286058 839.116231 995.376667 841.749194  C 996.467276 844.382157 998.065916 846.774692 1000.081099 848.789874  C 1002.096282 850.805057 1004.488816 852.403698 1007.121779 853.494306  C 1009.754742 854.584915 1012.576929 855.146283 1015.426827 855.146283  C 1018.276726 855.146283 1021.098913 854.584915 1023.731876 853.494306  C 1026.364839 852.403698 1028.757373 850.805057 1030.772556 848.789874  C 1032.787739 846.774692 1034.386379 844.382157 1035.476988 841.749194  C 1036.567597 839.116231 1037.128965 836.294045 1037.128965 833.444146  M 1015.426827 833.444146  z "
           style="fill: #b2b24c; stroke: #000000; stroke-width: 0.5; stroke-linejoin: miter"
           id="path50" />
      </g>
      <g
         id="patch_23">
        <path
           d="M 699.019067 702.217239  C 699.019067 699.367341 698.457699 696.545154 697.36709 693.912191  C 696.276482 691.279228 694.677841 688.886694 692.662658 686.871511  C 690.647476 684.856328 688.254941 683.257688 685.621978 682.167079  C 682.989015 681.07647 680.166829 680.515102 677.31693 680.515102  C 674.467031 680.515102 671.644845 681.07647 669.011882 682.167079  C 666.378919 683.257688 663.986384 684.856328 661.971201 686.871511  C 659.956019 688.886694 658.357378 691.279228 657.266769 693.912191  C 656.17616 696.545154 655.614793 699.367341 655.614793 702.217239  C 655.614793 705.067138 656.17616 707.889325 657.266769 710.522288  C 658.357378 713.155251 659.956019 715.547785 661.971201 717.562968  C 663.986384 719.578151 666.378919 721.176791 669.011882 722.2674  C 671.644845 723.358009 674.467031 723.919377 677.31693 723.919377  C 680.166829 723.919377 682.989015 723.358009 685.621978 722.2674  C 688.254941 721.176791 690.647476 719.578151 692.662658 717.562968  C 694.677841 715.547785 696.276482 713.155251 697.36709 710.522288  C 698.457699 707.889325 699.019067 705.067138 699.019067 702.217239  M 677.31693 702.217239  z "
           style="fill: #808000; stroke: #000000; stroke-width: 0.5; stroke-linejoin: miter"
           id="path51" />
      </g>
      <g
         id="patch_24">
        <path
           d="M 710.749965 1206.189031  C 710.749965 1203.339132 710.188597 1200.516945 709.097988 1197.883982  C 708.007379 1195.251019 706.408739 1192.858485 704.393556 1190.843302  C 702.378373 1188.82812 699.985839 1187.229479 697.352876 1186.13887  C 694.719913 1185.048261 691.897726 1184.486893 689.047827 1184.486893  C 686.197929 1184.486893 683.375742 1185.048261 680.742779 1186.13887  C 678.109816 1187.229479 675.717282 1188.82812 673.702099 1190.843302  C 671.686916 1192.858485 670.088276 1195.251019 668.997667 1197.883982  C 667.907058 1200.516945 667.34569 1203.339132 667.34569 1206.189031  C 667.34569 1209.038929 667.907058 1211.861116 668.997667 1214.494079  C 670.088276 1217.127042 671.686916 1219.519577 673.702099 1221.534759  C 675.717282 1223.549942 678.109816 1225.148582 680.742779 1226.239191  C 683.375742 1227.3298 686.197929 1227.891168 689.047827 1227.891168  C 691.897726 1227.891168 694.719913 1227.3298 697.352876 1226.239191  C 699.985839 1225.148582 702.378373 1223.549942 704.393556 1221.534759  C 706.408739 1219.519577 708.007379 1217.127042 709.097988 1214.494079  C 710.188597 1211.861116 710.749965 1209.038929 710.749965 1206.189031  M 689.047827 1206.189031  z "
           style="fill: #b2b24c; stroke: #000000; stroke-width: 0.5; stroke-linejoin: miter"
           id="path52" />
      </g>
      <g
         id="patch_25">
        <path
           d="M 930.045279 600.506515  C 930.045279 599.794041 929.904937 599.088494 929.632285 598.430253  C 929.359632 597.772013 928.959972 597.173879 928.456177 596.670083  C 927.952381 596.166288 927.354247 595.766628 926.696007 595.493975  C 926.037766 595.221323 925.332219 595.080981 924.619745 595.080981  C 923.90727 595.080981 923.201723 595.221323 922.543482 595.493975  C 921.885242 595.766628 921.287108 596.166288 920.783312 596.670083  C 920.279517 597.173879 919.879857 597.772013 919.607204 598.430253  C 919.334552 599.088494 919.19421 599.794041 919.19421 600.506515  C 919.19421 601.21899 919.334552 601.924537 919.607204 602.582778  C 919.879857 603.241018 920.279517 603.839152 920.783312 604.342948  C 921.287108 604.846743 921.885242 605.246403 922.543482 605.519056  C 923.201723 605.791708 923.90727 605.93205 924.619745 605.93205  C 925.332219 605.93205 926.037766 605.791708 926.696007 605.519056  C 927.354247 605.246403 927.952381 604.846743 928.456177 604.342948  C 928.959972 603.839152 929.359632 603.241018 929.632285 602.582778  C 929.904937 601.924537 930.045279 601.21899 930.045279 600.506515  M 924.619745 600.506515  z "
           style="fill: #b20066; stroke: #000000; stroke-width: 0.5; stroke-linejoin: miter"
           id="path53" />
      </g>
      <g
         id="patch_26">
        <path
           d="M 263.668011 927.393839  C 263.668011 924.543941 263.106643 921.721754 262.016034 919.088791  C 260.925425 916.455828 259.326784 914.063294 257.311602 912.048111  C 255.296419 910.032928 252.903885 908.434288 250.270922 907.343679  C 247.637959 906.25307 244.815772 905.691702 241.965873 905.691702  C 239.115975 905.691702 236.293788 906.25307 233.660825 907.343679  C 231.027862 908.434288 228.635327 910.032928 226.620145 912.048111  C 224.604962 914.063294 223.006322 916.455828 221.915713 919.088791  C 220.825104 921.721754 220.263736 924.543941 220.263736 927.393839  C 220.263736 930.243738 220.825104 933.065925 221.915713 935.698888  C 223.006322 938.331851 224.604962 940.724385 226.620145 942.739568  C 228.635327 944.754751 231.027862 946.353391 233.660825 947.444  C 236.293788 948.534609 239.115975 949.095977 241.965873 949.095977  C 244.815772 949.095977 247.637959 948.534609 250.270922 947.444  C 252.903885 946.353391 255.296419 944.754751 257.311602 942.739568  C 259.326784 940.724385 260.925425 938.331851 262.016034 935.698888  C 263.106643 933.065925 263.668011 930.243738 263.668011 927.393839  M 241.965873 927.393839  z "
           style="fill: #808000; stroke: #000000; stroke-width: 0.5; stroke-linejoin: miter"
           id="path54" />
      </g>
      <g
         id="patch_27">
        <path
           d="M 978.460346 1083.017873  C 978.460346 1082.305399 978.320004 1081.599852 978.047352 1080.941611  C 977.7747 1080.28337 977.375039 1079.685237 976.871244 1079.181441  C 976.367448 1078.677646 975.769315 1078.277985 975.111074 1078.005333  C 974.452833 1077.732681 973.747286 1077.592339 973.034812 1077.592339  C 972.322337 1077.592339 971.61679 1077.732681 970.95855 1078.005333  C 970.300309 1078.277985 969.702175 1078.677646 969.19838 1079.181441  C 968.694584 1079.685237 968.294924 1080.28337 968.022272 1080.941611  C 967.749619 1081.599852 967.609277 1082.305399 967.609277 1083.017873  C 967.609277 1083.730348 967.749619 1084.435895 968.022272 1085.094135  C 968.294924 1085.752376 968.694584 1086.35051 969.19838 1086.854305  C 969.702175 1087.358101 970.300309 1087.757761 970.95855 1088.030413  C 971.61679 1088.303066 972.322337 1088.443408 973.034812 1088.443408  C 973.747286 1088.443408 974.452833 1088.303066 975.111074 1088.030413  C 975.769315 1087.757761 976.367448 1087.358101 976.871244 1086.854305  C 977.375039 1086.35051 977.7747 1085.752376 978.047352 1085.094135  C 978.320004 1084.435895 978.460346 1083.730348 978.460346 1083.017873  M 973.034812 1083.017873  z "
           style="fill: #e68080; stroke: #000000; stroke-width: 0.5; stroke-linejoin: miter"
           id="path55" />
      </g>
      <g
         id="patch_28">
        <path
           d="M 455.366014 901.776233  C 455.366014 891.707508 451.361963 882.040872 444.242299 874.921208  C 437.122635 867.801545 427.455999 863.797493 417.387274 863.797493  C 407.318549 863.797493 397.651913 867.801545 390.532249 874.921208  C 383.412585 882.040872 379.408534 891.707508 379.408534 901.776233  L 417.387274 901.776233  z "
           style="fill: #801a1a; stroke: #000000; stroke-width: 0.5; stroke-linejoin: miter"
           id="path56" />
      </g>
      <g
         id="patch_29">
        <path
           d="M 379.408534 901.776233  C 379.408534 911.844958 383.412585 921.511594 390.532249 928.631258  C 397.651913 935.750922 407.318549 939.754974 417.387274 939.754974  C 427.455999 939.754974 437.122635 935.750922 444.242299 928.631258  C 451.361963 921.511594 455.366014 911.844958 455.366014 901.776233  L 417.387274 901.776233  z "
           style="fill: #66b2e6; stroke: #000000; stroke-width: 0.5; stroke-linejoin: miter"
           id="path57" />
      </g>
      <g
         id="patch_30">
        <path
           d="M 995.664439 1114.321796  C 995.664439 1111.471898 995.103071 1108.649711 994.012462 1106.016748  C 992.921853 1103.383785 991.323213 1100.99125 989.30803 1098.976068  C 987.292848 1096.960885 984.900313 1095.362245 982.26735 1094.271636  C 979.634387 1093.181027 976.8122 1092.619659 973.962302 1092.619659  C 971.112403 1092.619659 968.290216 1093.181027 965.657253 1094.271636  C 963.024291 1095.362245 960.631756 1096.960885 958.616573 1098.976068  C 956.601391 1100.99125 955.00275 1103.383785 953.912141 1106.016748  C 952.821532 1108.649711 952.260165 1111.471898 952.260165 1114.321796  C 952.260165 1117.171695 952.821532 1119.993882 953.912141 1122.626845  C 955.00275 1125.259807 956.601391 1127.652342 958.616573 1129.667525  C 960.631756 1131.682707 963.024291 1133.281348 965.657253 1134.371957  C 968.290216 1135.462566 971.112403 1136.023933 973.962302 1136.023933  C 976.8122 1136.023933 979.634387 1135.462566 982.26735 1134.371957  C 984.900313 1133.281348 987.292848 1131.682707 989.30803 1129.667525  C 991.323213 1127.652342 992.921853 1125.259807 994.012462 1122.626845  C 995.103071 1119.993882 995.664439 1117.171695 995.664439 1114.321796  M 973.962302 1114.321796  z "
           style="fill: #1ae61a; stroke: #000000; stroke-width: 0.5; stroke-linejoin: miter"
           id="path58" />
      </g>
      <g
         id="patch_31">
        <path
           d="M 973.168877 778.911162  C 973.168877 778.198687 973.028535 777.49314 972.755883 776.8349  C 972.483231 776.176659 972.08357 775.578525 971.579775 775.07473  C 971.075979 774.570934 970.477845 774.171274 969.819605 773.898622  C 969.161364 773.625969 968.455817 773.485627 967.743343 773.485627  C 967.030868 773.485627 966.325321 773.625969 965.667081 773.898622  C 965.00884 774.171274 964.410706 774.570934 963.906911 775.07473  C 963.403115 775.578525 963.003455 776.176659 962.730802 776.8349  C 962.45815 777.49314 962.317808 778.198687 962.317808 778.911162  C 962.317808 779.623636 962.45815 780.329183 962.730802 780.987424  C 963.003455 781.645665 963.403115 782.243798 963.906911 782.747594  C 964.410706 783.25139 965.00884 783.65105 965.667081 783.923702  C 966.325321 784.196354 967.030868 784.336696 967.743343 784.336696  C 968.455817 784.336696 969.161364 784.196354 969.819605 783.923702  C 970.477845 783.65105 971.075979 783.25139 971.579775 782.747594  C 972.08357 782.243798 972.483231 781.645665 972.755883 780.987424  C 973.028535 780.329183 973.168877 779.623636 973.168877 778.911162  M 967.743343 778.911162  z "
           style="fill: #ff9900; stroke: #000000; stroke-width: 0.5; stroke-linejoin: miter"
           id="path59" />
      </g>
      <g
         id="patch_33">
        <path
           d="M 855.254618 609.2997  C 855.254618 606.449802 854.69325 603.627615 853.602641 600.994652  C 852.512032 598.361689 850.913392 595.969154 848.898209 593.953972  C 846.883027 591.938789 844.490492 590.340149 841.857529 589.24954  C 839.224566 588.158931 836.402379 587.597563 833.552481 587.597563  C 830.702582 587.597563 827.880395 588.158931 825.247432 589.24954  C 822.614469 590.340149 820.221935 591.938789 818.206752 593.953972  C 816.19157 595.969154 814.592929 598.361689 813.50232 600.994652  C 812.411711 603.627615 811.850343 606.449802 811.850343 609.2997  C 811.850343 612.149599 812.411711 614.971786 813.50232 617.604749  C 814.592929 620.237712 816.19157 622.630246 818.206752 624.645429  C 820.221935 626.660611 822.614469 628.259252 825.247432 629.349861  C 827.880395 630.44047 830.702582 631.001838 833.552481 631.001838  C 836.402379 631.001838 839.224566 630.44047 841.857529 629.349861  C 844.490492 628.259252 846.883027 626.660611 848.898209 624.645429  C 850.913392 622.630246 852.512032 620.237712 853.602641 617.604749  C 854.69325 614.971786 855.254618 612.149599 855.254618 609.2997  M 833.552481 609.2997  z "
           style="fill: #1ae61a; stroke: #000000; stroke-width: 0.5; stroke-linejoin: miter"
           id="path61" />
      </g>
      <g
         id="patch_34">
        <path
           d="M 832.225701 1310.381459  C 832.225701 1307.531561 831.664333 1304.709374 830.573724 1302.076411  C 829.483115 1299.443448 827.884475 1297.050913 825.869292 1295.035731  C 823.854109 1293.020548 821.461575 1291.421908 818.828612 1290.331299  C 816.195649 1289.24069 813.373462 1288.679322 810.523563 1288.679322  C 807.673665 1288.679322 804.851478 1289.24069 802.218515 1290.331299  C 799.585552 1291.421908 797.193018 1293.020548 795.177835 1295.035731  C 793.162652 1297.050913 791.564012 1299.443448 790.473403 1302.076411  C 789.382794 1304.709374 788.821426 1307.531561 788.821426 1310.381459  C 788.821426 1313.231358 789.382794 1316.053545 790.473403 1318.686508  C 791.564012 1321.319471 793.162652 1323.712005 795.177835 1325.727188  C 797.193018 1327.74237 799.585552 1329.341011 802.218515 1330.43162  C 804.851478 1331.522229 807.673665 1332.083597 810.523563 1332.083597  C 813.373462 1332.083597 816.195649 1331.522229 818.828612 1330.43162  C 821.461575 1329.341011 823.854109 1327.74237 825.869292 1325.727188  C 827.884475 1323.712005 829.483115 1321.319471 830.573724 1318.686508  C 831.664333 1316.053545 832.225701 1313.231358 832.225701 1310.381459  M 810.523563 1310.381459  z "
           style="fill: #e68080; stroke: #000000; stroke-width: 0.5; stroke-linejoin: miter"
           id="path62" />
      </g>
      <g
         id="patch_35">
        <path
           d="M 832.183729 479.822965  C 832.183729 474.835642 831.201335 469.896815 829.292769 465.28913  C 827.384203 460.681445 824.586583 456.494509 821.060013 452.96794  C 817.533444 449.44137 813.346508 446.643749 808.738823 444.735184  C 804.131138 442.826618 799.192311 441.844224 794.204988 441.844224  C 789.217666 441.844224 784.278839 442.826618 779.671153 444.735184  C 775.063468 446.643749 770.876533 449.44137 767.349963 452.96794  C 763.823394 456.494509 761.025773 460.681445 759.117207 465.28913  C 757.208642 469.896815 756.226248 474.835642 756.226248 479.822965  C 756.226248 484.810287 757.208642 489.749114 759.117207 494.356799  C 761.025773 498.964484 763.823394 503.15142 767.349963 506.677989  C 770.876533 510.204559 775.063468 513.00218 779.671153 514.910745  C 784.278839 516.819311 789.217666 517.801705 794.204988 517.801705  C 799.192311 517.801705 804.131138 516.819311 808.738823 514.910745  C 813.346508 513.00218 817.533444 510.204559 821.060013 506.677989  C 824.586583 503.15142 827.384203 498.964484 829.292769 494.356799  C 831.201335 489.749114 832.183729 484.810287 832.183729 479.822965  M 794.204988 479.822965  z "
           style="fill: #b20066; stroke: #000000; stroke-width: 0.5; stroke-linejoin: miter"
           id="path63" />
      </g>
      <g
         id="patch_36">
        <path
           d="M 903.974259 632.113783  C 903.974259 629.263885 903.412891 626.441698 902.322282 623.808735  C 901.231673 621.175772 899.633033 618.783237 897.61785 616.768055  C 895.602668 614.752872 893.210133 613.154232 890.57717 612.063623  C 887.944207 610.973014 885.12202 610.411646 882.272122 610.411646  C 879.422223 610.411646 876.600036 610.973014 873.967073 612.063623  C 871.33411 613.154232 868.941576 614.752872 866.926393 616.768055  C 864.911211 618.783237 863.31257 621.175772 862.221961 623.808735  C 861.131352 626.441698 860.569984 629.263885 860.569984 632.113783  C 860.569984 634.963682 861.131352 637.785869 862.221961 640.418832  C 863.31257 643.051795 864.911211 645.444329 866.926393 647.459512  C 868.941576 649.474695 871.33411 651.073335 873.967073 652.163944  C 876.600036 653.254553 879.422223 653.815921 882.272122 653.815921  C 885.12202 653.815921 887.944207 653.254553 890.57717 652.163944  C 893.210133 651.073335 895.602668 649.474695 897.61785 647.459512  C 899.633033 645.444329 901.231673 643.051795 902.322282 640.418832  C 903.412891 637.785869 903.974259 634.963682 903.974259 632.113783  M 882.272122 632.113783  z "
           style="fill: #1ae61a; stroke: #000000; stroke-width: 0.5; stroke-linejoin: miter"
           id="path64" />
      </g>
      <g
         id="patch_38">
        <path
           d="M 917.777242 406.364174  C 917.777242 401.376851 916.794849 396.438024 914.886283 391.830339  C 912.977717 387.222654 910.180096 383.035719 906.653527 379.509149  C 903.126957 375.982579 898.940022 373.184959 894.332337 371.276393  C 889.724651 369.367827 884.785824 368.385433 879.798502 368.385433  C 874.811179 368.385433 869.872352 369.367827 865.264667 371.276393  C 860.656982 373.184959 856.470047 375.982579 852.943477 379.509149  C 849.416907 383.035719 846.619287 387.222654 844.710721 391.830339  C 842.802155 396.438024 841.819762 401.376851 841.819762 406.364174  C 841.819762 411.351496 842.802155 416.290323 844.710721 420.898009  C 846.619287 425.505694 849.416907 429.692629 852.943477 433.219199  C 856.470047 436.745768 860.656982 439.543389 865.264667 441.451955  C 869.872352 443.36052 874.811179 444.342914 879.798502 444.342914  C 884.785824 444.342914 889.724651 443.36052 894.332337 441.451955  C 898.940022 439.543389 903.126957 436.745768 906.653527 433.219199  C 910.180096 429.692629 912.977717 425.505694 914.886283 420.898009  C 916.794849 416.290323 917.777242 411.351496 917.777242 406.364174  M 879.798502 406.364174  z "
           style="fill: #4c00b2; stroke: #000000; stroke-width: 0.5; stroke-linejoin: miter"
           id="path66" />
      </g>
      <g
         id="patch_39">
        <path
           d="M 878.753828 741.576709  C 878.753828 736.589387 877.771434 731.65056 875.862869 727.042875  C 873.954303 722.435189 871.156682 718.248254 867.630113 714.721684  C 864.103543 711.195115 859.916608 708.397494 855.308923 706.488928  C 850.701237 704.580363 845.76241 703.597969 840.775088 703.597969  C 835.787765 703.597969 830.848938 704.580363 826.241253 706.488928  C 821.633568 708.397494 817.446632 711.195115 813.920063 714.721684  C 810.393493 718.248254 807.595873 722.435189 805.687307 727.042875  C 803.778741 731.65056 802.796347 736.589387 802.796347 741.576709  C 802.796347 746.564032 803.778741 751.502859 805.687307 756.110544  C 807.595873 760.718229 810.393493 764.905165 813.920063 768.431734  C 817.446632 771.958304 821.633568 774.755925 826.241253 776.66449  C 830.848938 778.573056 835.787765 779.55545 840.775088 779.55545  C 845.76241 779.55545 850.701237 778.573056 855.308923 776.66449  C 859.916608 774.755925 864.103543 771.958304 867.630113 768.431734  C 871.156682 764.905165 873.954303 760.718229 875.862869 756.110544  C 877.771434 751.502859 878.753828 746.564032 878.753828 741.576709  M 840.775088 741.576709  z "
           style="fill: #80e6cc; stroke: #000000; stroke-width: 0.5; stroke-linejoin: miter"
           id="path67" />
      </g>
      <g
         id="patch_40">
        <path
           d="M 785.872346 494.20431  C 785.872346 493.491835 785.732004 492.786289 785.459352 492.128048  C 785.1867 491.469807 784.787039 490.871673 784.283244 490.367878  C 783.779448 489.864082 783.181315 489.464422 782.523074 489.19177  C 781.864833 488.919118 781.159286 488.778776 780.446812 488.778776  C 779.734337 488.778776 779.02879 488.919118 778.37055 489.19177  C 777.712309 489.464422 777.114175 489.864082 776.61038 490.367878  C 776.106584 490.871673 775.706924 491.469807 775.434272 492.128048  C 775.161619 492.786289 775.021277 493.491835 775.021277 494.20431  C 775.021277 494.916785 775.161619 495.622331 775.434272 496.280572  C 775.706924 496.938813 776.106584 497.536946 776.61038 498.040742  C 777.114175 498.544538 777.712309 498.944198 778.37055 499.21685  C 779.02879 499.489502 779.734337 499.629844 780.446812 499.629844  C 781.159286 499.629844 781.864833 499.489502 782.523074 499.21685  C 783.181315 498.944198 783.779448 498.544538 784.283244 498.040742  C 784.787039 497.536946 785.1867 496.938813 785.459352 496.280572  C 785.732004 495.622331 785.872346 494.916785 785.872346 494.20431  M 780.446812 494.20431  z "
           style="fill: #4c00b2; stroke: #000000; stroke-width: 0.5; stroke-linejoin: miter"
           id="path68" />
      </g>
      <g
         id="patch_41">
        <path
           d="M 703.314275 556.706909  C 703.314275 555.26852 702.742267 553.887572 701.725172 552.870477  C 700.708077 551.853382 699.32713 551.281375 697.88874 551.281375  C 696.450351 551.281375 695.069403 551.853382 694.052308 552.870477  C 693.035213 553.887572 692.463206 555.26852 692.463206 556.706909  L 697.88874 556.706909  z "
           style="fill: #66b2e6; stroke: #000000; stroke-width: 0.5; stroke-linejoin: miter"
           id="path69" />
      </g>
      <g
         id="patch_42">
        <path
           d="M 692.463206 556.706909  C 692.463206 558.145298 693.035213 559.526246 694.052308 560.543341  C 695.069403 561.560436 696.450351 562.132443 697.88874 562.132443  C 699.32713 562.132443 700.708077 561.560436 701.725172 560.543341  C 702.742267 559.526246 703.314275 558.145298 703.314275 556.706909  L 697.88874 556.706909  z "
           style="fill: #808000; stroke: #000000; stroke-width: 0.5; stroke-linejoin: miter"
           id="path70" />
      </g>
      <g
         id="patch_43">
        <path
           d="M 776.205671 779.184343  C 776.205671 776.334444 775.644303 773.512258 774.553694 770.879295  C 773.463085 768.246332 771.864445 765.853797 769.849262 763.838615  C 767.834079 761.823432 765.441545 760.224791 762.808582 759.134182  C 760.175619 758.043574 757.353432 757.482206 754.503534 757.482206  C 751.653635 757.482206 748.831448 758.043574 746.198485 759.134182  C 743.565522 760.224791 741.172988 761.823432 739.157805 763.838615  C 737.142622 765.853797 735.543982 768.246332 734.453373 770.879295  C 733.362764 773.512258 732.801396 776.334444 732.801396 779.184343  C 732.801396 782.034242 733.362764 784.856428 734.453373 787.489391  C 735.543982 790.122354 737.142622 792.514889 739.157805 794.530072  C 741.172988 796.545254 743.565522 798.143895 746.198485 799.234504  C 748.831448 800.325113 751.653635 800.88648 754.503534 800.88648  C 757.353432 800.88648 760.175619 800.325113 762.808582 799.234504  C 765.441545 798.143895 767.834079 796.545254 769.849262 794.530072  C 771.864445 792.514889 773.463085 790.122354 774.553694 787.489391  C 775.644303 784.856428 776.205671 782.034242 776.205671 779.184343  M 754.503534 779.184343  z "
           style="fill: #4c00b2; stroke: #000000; stroke-width: 0.5; stroke-linejoin: miter"
           id="path71" />
      </g>
      <g
         id="patch_44">
        <path
           d="M 795.546607 784.05853  C 795.546607 781.208631 794.985239 778.386444 793.894631 775.753481  C 792.804022 773.120518 791.205381 770.727984 789.190198 768.712801  C 787.175016 766.697619 784.782481 765.098978 782.149518 764.008369  C 779.516555 762.91776 776.694369 762.356392 773.84447 762.356392  C 770.994571 762.356392 768.172385 762.91776 765.539422 764.008369  C 762.906459 765.098978 760.513924 766.697619 758.498741 768.712801  C 756.483559 770.727984 754.884918 773.120518 753.794309 775.753481  C 752.7037 778.386444 752.142333 781.208631 752.142333 784.05853  C 752.142333 786.908428 752.7037 789.730615 753.794309 792.363578  C 754.884918 794.996541 756.483559 797.389076 758.498741 799.404258  C 760.513924 801.419441 762.906459 803.018081 765.539422 804.10869  C 768.172385 805.199299 770.994571 805.760667 773.84447 805.760667  C 776.694369 805.760667 779.516555 805.199299 782.149518 804.10869  C 784.782481 803.018081 787.175016 801.419441 789.190198 799.404258  C 791.205381 797.389076 792.804022 794.996541 793.894631 792.363578  C 794.985239 789.730615 795.546607 786.908428 795.546607 784.05853  M 773.84447 784.05853  z "
           style="fill: #4c00b2; stroke: #000000; stroke-width: 0.5; stroke-linejoin: miter"
           id="path72" />
      </g>
      <g
         id="patch_45">
        <path
           d="M 648.174029 1372.74518  C 648.174029 1368.935943 647.171113 1365.193007 645.266494 1361.894111  C 643.361876 1358.595215 640.621857 1355.855196 637.32296 1353.950577  C 634.024064 1352.045959 630.281128 1351.043042 626.471891 1351.043042  C 622.662654 1351.043043 618.919718 1352.045959 615.620822 1353.950578  L 626.471892 1372.74518  z "
           style="fill: #e61a1a; stroke: #000000; stroke-width: 0.5; stroke-linejoin: miter"
           id="path73" />
      </g>
      <g
         id="patch_46">
        <path
           d="M 615.620822 1353.950578  C 612.321926 1355.855197 609.581907 1358.595216 607.677289 1361.894113  C 605.772671 1365.193009 604.769754 1368.935945 604.769755 1372.745182  C 604.769755 1376.554419 605.772672 1380.297354 607.677291 1383.596251  C 609.58191 1386.895147 612.321929 1389.635165 615.620826 1391.539783  L 626.471892 1372.74518  z "
           style="fill: #b26633; stroke: #000000; stroke-width: 0.5; stroke-linejoin: miter"
           id="path74" />
      </g>
      <g
         id="patch_47">
        <path
           d="M 615.620826 1391.539783  C 618.919722 1393.444402 622.662658 1394.447318 626.471895 1394.447317  C 630.281132 1394.447317 634.024068 1393.4444 637.322964 1391.53978  C 640.62186 1389.635161 643.361878 1386.895142 645.266496 1383.596245  C 647.171114 1380.297349 648.17403 1376.554413 648.174029 1372.745176  L 626.471892 1372.74518  z "
           style="fill: #1ae61a; stroke: #000000; stroke-width: 0.5; stroke-linejoin: miter"
           id="path75" />
      </g>
      <g
         id="patch_48">
        <path
           d="M 454.069379 652.999704  C 454.069379 650.149805 453.508011 647.327618 452.417402 644.694655  C 451.326793 642.061692 449.728152 639.669158 447.71297 637.653975  C 445.697787 635.638792 443.305253 634.040152 440.67229 632.949543  C 438.039327 631.858934 435.21714 631.297566 432.367241 631.297566  C 429.517343 631.297566 426.695156 631.858934 424.062193 632.949543  C 421.42923 634.040152 419.036695 635.638792 417.021513 637.653975  C 415.00633 639.669158 413.40769 642.061692 412.317081 644.694655  C 411.226472 647.327618 410.665104 650.149805 410.665104 652.999704  C 410.665104 655.849602 411.226472 658.671789 412.317081 661.304752  C 413.40769 663.937715 415.00633 666.330249 417.021513 668.345432  C 419.036695 670.360615 421.42923 671.959255 424.062193 673.049864  C 426.695156 674.140473 429.517343 674.701841 432.367241 674.701841  C 435.21714 674.701841 438.039327 674.140473 440.67229 673.049864  C 443.305253 671.959255 445.697787 670.360615 447.71297 668.345432  C 449.728152 666.330249 451.326793 663.937715 452.417402 661.304752  C 453.508011 658.671789 454.069379 655.849602 454.069379 652.999704  M 432.367241 652.999704  z "
           style="fill: #4cccf2; stroke: #000000; stroke-width: 0.5; stroke-linejoin: miter"
           id="path76" />
      </g>
      <g
         id="patch_49">
        <path
           d="M 826.337166 986.224787  C 826.337166 983.374888 825.775798 980.552702 824.685189 977.919739  C 823.594581 975.286776 821.99594 972.894241 819.980757 970.879059  C 817.965575 968.863876 815.57304 967.265236 812.940077 966.174627  C 810.307114 965.084018 807.484928 964.52265 804.635029 964.52265  C 801.78513 964.52265 798.962943 965.084018 796.329981 966.174627  C 793.697018 967.265236 791.304483 968.863876 789.2893 970.879059  C 787.274118 972.894241 785.675477 975.286776 784.584868 977.919739  C 783.494259 980.552702 782.932892 983.374888 782.932892 986.224787  C 782.932892 989.074686 783.494259 991.896873 784.584868 994.529835  C 785.675477 997.162798 787.274118 999.555333 789.2893 1001.570516  C 791.304483 1003.585698 793.697018 1005.184339 796.329981 1006.274948  C 798.962943 1007.365557 801.78513 1007.926924 804.635029 1007.926924  C 807.484928 1007.926924 810.307114 1007.365557 812.940077 1006.274948  C 815.57304 1005.184339 817.965575 1003.585698 819.980757 1001.570516  C 821.99594 999.555333 823.594581 997.162798 824.685189 994.529835  C 825.775798 991.896873 826.337166 989.074686 826.337166 986.224787  M 804.635029 986.224787  z "
           style="fill: #4cccf2; stroke: #000000; stroke-width: 0.5; stroke-linejoin: miter"
           id="path77" />
      </g>
      <g
         id="patch_50">
        <path
           d="M 959.596839 878.273821  C 959.596839 873.286498 958.614445 868.347671 956.705879 863.739986  C 954.797314 859.132301 951.999693 854.945366 948.473123 851.418796  C 944.946554 847.892226 940.759618 845.094606 936.151933 843.18604  C 931.544248 841.277474 926.605421 840.295081 921.618098 840.295081  C 916.630776 840.295081 911.691949 841.277474 907.084264 843.18604  C 902.476578 845.094606 898.289643 847.892226 894.763073 851.418796  C 891.236504 854.945366 888.438883 859.132301 886.530317 863.739986  C 884.621752 868.347671 883.639358 873.286498 883.639358 878.273821  C 883.639358 883.261143 884.621752 888.19997 886.530317 892.807656  C 888.438883 897.415341 891.236504 901.602276 894.763073 905.128846  C 898.289643 908.655415 902.476578 911.453036 907.084264 913.361602  C 911.691949 915.270168 916.630776 916.252561 921.618098 916.252561  C 926.605421 916.252561 931.544248 915.270168 936.151933 913.361602  C 940.759618 911.453036 944.946554 908.655415 948.473123 905.128846  C 951.999693 901.602276 954.797314 897.415341 956.705879 892.807656  C 958.614445 888.19997 959.596839 883.261143 959.596839 878.273821  M 921.618098 878.273821  z "
           style="fill: #b2b24c; stroke: #000000; stroke-width: 0.5; stroke-linejoin: miter"
           id="path78" />
      </g>
      <g
         id="patch_53">
        <path
           d="M 846.965861 512.06268  C 846.965861 511.350206 846.825519 510.644659 846.552867 509.986418  C 846.280215 509.328178 845.880554 508.730044 845.376759 508.226248  C 844.872963 507.722453 844.274829 507.322793 843.616589 507.05014  C 842.958348 506.777488 842.252801 506.637146 841.540327 506.637146  C 840.827852 506.637146 840.122305 506.777488 839.464065 507.05014  C 838.805824 507.322793 838.20769 507.722453 837.703895 508.226248  C 837.200099 508.730044 836.800439 509.328178 836.527787 509.986418  C 836.255134 510.644659 836.114792 511.350206 836.114792 512.06268  C 836.114792 512.775155 836.255134 513.480702 836.527787 514.138943  C 836.800439 514.797183 837.200099 515.395317 837.703895 515.899113  C 838.20769 516.402908 838.805824 516.802568 839.464065 517.075221  C 840.122305 517.347873 840.827852 517.488215 841.540327 517.488215  C 842.252801 517.488215 842.958348 517.347873 843.616589 517.075221  C 844.274829 516.802568 844.872963 516.402908 845.376759 515.899113  C 845.880554 515.395317 846.280215 514.797183 846.552867 514.138943  C 846.825519 513.480702 846.965861 512.775155 846.965861 512.06268  M 841.540327 512.06268  z "
           style="fill: #b20066; stroke: #000000; stroke-width: 0.5; stroke-linejoin: miter"
           id="path81" />
      </g>
      <g
         id="patch_54">
        <path
           d="M 946.132991 563.34459  C 946.132991 558.357267 945.150597 553.41844 943.242031 548.810755  C 941.333466 544.20307 938.535845 540.016135 935.009275 536.489565  C 931.482706 532.962996 927.29577 530.165375 922.688085 528.256809  C 918.0804 526.348243 913.141573 525.36585 908.15425 525.36585  C 903.166928 525.36585 898.228101 526.348243 893.620416 528.256809  C 889.012731 530.165375 884.825795 532.962996 881.299226 536.489565  C 877.772656 540.016135 874.975035 544.20307 873.06647 548.810755  C 871.157904 553.41844 870.17551 558.357267 870.17551 563.34459  C 870.17551 568.331912 871.157904 573.27074 873.06647 577.878425  C 874.975035 582.48611 877.772656 586.673045 881.299226 590.199615  C 884.825795 593.726184 889.012731 596.523805 893.620416 598.432371  C 898.228101 600.340937 903.166928 601.32333 908.15425 601.32333  C 913.141573 601.32333 918.0804 600.340937 922.688085 598.432371  C 927.29577 596.523805 931.482706 593.726184 935.009275 590.199615  C 938.535845 586.673045 941.333466 582.48611 943.242031 577.878425  C 945.150597 573.27074 946.132991 568.331912 946.132991 563.34459  M 908.15425 563.34459  z "
           style="fill: #b2b24c; stroke: #000000; stroke-width: 0.5; stroke-linejoin: miter"
           id="path82" />
      </g>
      <g
         id="patch_55">
        <path
           d="M 942.724185 517.810918  C 942.724185 514.961019 942.162817 512.138832 941.072208 509.505869  C 939.981599 506.872906 938.382959 504.480372 936.367776 502.465189  C 934.352593 500.450006 931.960059 498.851366 929.327096 497.760757  C 926.694133 496.670148 923.871946 496.10878 921.022047 496.10878  C 918.172149 496.10878 915.349962 496.670148 912.716999 497.760757  C 910.084036 498.851366 907.691502 500.450006 905.676319 502.465189  C 903.661136 504.480372 902.062496 506.872906 900.971887 509.505869  C 899.881278 512.138832 899.31991 514.961019 899.31991 517.810918  C 899.31991 520.660816 899.881278 523.483003 900.971887 526.115966  C 902.062496 528.748929 903.661136 531.141463 905.676319 533.156646  C 907.691502 535.171829 910.084036 536.770469 912.716999 537.861078  C 915.349962 538.951687 918.172149 539.513055 921.022047 539.513055  C 923.871946 539.513055 926.694133 538.951687 929.327096 537.861078  C 931.960059 536.770469 934.352593 535.171829 936.367776 533.156646  C 938.382959 531.141463 939.981599 528.748929 941.072208 526.115966  C 942.162817 523.483003 942.724185 520.660816 942.724185 517.810918  M 921.022047 517.810918  z "
           style="fill: #b20066; stroke: #000000; stroke-width: 0.5; stroke-linejoin: miter"
           id="path83" />
      </g>
      <g
         id="patch_56">
        <path
           d="M 1201.892336 673.419267  C 1201.892336 668.431945 1200.909943 663.493118 1199.001377 658.885432  C 1197.092811 654.277747 1194.29519 650.090812 1190.768621 646.564242  C 1187.242051 643.037673 1183.055116 640.240052 1178.447431 638.331486  C 1173.839746 636.422921 1168.900918 635.440527 1163.913596 635.440527  C 1158.926273 635.440527 1153.987446 636.422921 1149.379761 638.331486  C 1144.772076 640.240052 1140.585141 643.037673 1137.058571 646.564242  C 1133.532002 650.090812 1130.734381 654.277747 1128.825815 658.885432  C 1126.917249 663.493118 1125.934856 668.431945 1125.934856 673.419267  C 1125.934856 678.40659 1126.917249 683.345417 1128.825815 687.953102  C 1130.734381 692.560787 1133.532002 696.747722 1137.058571 700.274292  C 1140.585141 703.800862 1144.772076 706.598482 1149.379761 708.507048  C 1153.987446 710.415614 1158.926273 711.398008 1163.913596 711.398008  C 1168.900918 711.398008 1173.839746 710.415614 1178.447431 708.507048  C 1183.055116 706.598482 1187.242051 703.800862 1190.768621 700.274292  C 1194.29519 696.747722 1197.092811 692.560787 1199.001377 687.953102  C 1200.909943 683.345417 1201.892336 678.40659 1201.892336 673.419267  M 1163.913596 673.419267  z "
           style="fill: #66cc66; stroke: #000000; stroke-width: 0.5; stroke-linejoin: miter"
           id="path84" />
      </g>
      <g
         id="patch_57">
        <path
           d="M 345.346798 115.710687  C 345.346798 110.723364 344.364404 105.784537 342.455839 101.176852  C 340.547273 96.569167 337.749652 92.382232 334.223083 88.855662  C 330.696513 85.329092 326.509578 82.531472 321.901893 80.622906  C 317.294207 78.71434 312.35538 77.731946 307.368058 77.731946  C 302.380735 77.731946 297.441908 78.71434 292.834223 80.622906  C 288.226538 82.531472 284.039602 85.329092 280.513033 88.855662  C 276.986463 92.382232 274.188843 96.569167 272.280277 101.176852  C 270.371711 105.784537 269.389317 110.723364 269.389317 115.710687  C 269.389317 120.698009 270.371711 125.636836 272.280277 130.244522  C 274.188843 134.852207 276.986463 139.039142 280.513033 142.565712  C 284.039602 146.092281 288.226538 148.889902 292.834223 150.798468  C 297.441908 152.707033 302.380735 153.689427 307.368058 153.689427  C 312.35538 153.689427 317.294207 152.707033 321.901893 150.798468  C 326.509578 148.889902 330.696513 146.092281 334.223083 142.565712  C 337.749652 139.039142 340.547273 134.852207 342.455839 130.244522  C 344.364404 125.636836 345.346798 120.698009 345.346798 115.710687  M 307.368058 115.710687  z "
           style="fill: #808000; stroke: #000000; stroke-width: 0.5; stroke-linejoin: miter"
           id="path85" />
      </g>
      <g
         id="patch_58">
        <path
           d="M 249.066939 220.67669  C 249.066939 215.689367 248.084546 210.75054 246.17598 206.142855  C 244.267414 201.53517 241.469793 197.348234 237.943224 193.821665  C 234.416654 190.295095 230.229719 187.497474 225.622034 185.588909  C 221.014348 183.680343 216.075521 182.697949 211.088199 182.697949  C 206.100876 182.697949 201.162049 183.680343 196.554364 185.588909  C 191.946679 187.497474 187.759744 190.295095 184.233174 193.821665  C 180.706604 197.348234 177.908984 201.53517 176.000418 206.142855  C 174.091852 210.75054 173.109458 215.689367 173.109458 220.67669  C 173.109458 225.664012 174.091852 230.602839 176.000418 235.210524  C 177.908984 239.818209 180.706604 244.005145 184.233174 247.531714  C 187.759744 251.058284 191.946679 253.855905 196.554364 255.76447  C 201.162049 257.673036 206.100876 258.65543 211.088199 258.65543  C 216.075521 258.65543 221.014348 257.673036 225.622034 255.76447  C 230.229719 253.855905 234.416654 251.058284 237.943224 247.531714  C 241.469793 244.005145 244.267414 239.818209 246.17598 235.210524  C 248.084546 230.602839 249.066939 225.664012 249.066939 220.67669  M 211.088199 220.67669  z "
           style="fill: #4c00b2; stroke: #000000; stroke-width: 0.5; stroke-linejoin: miter"
           id="path86" />
      </g>
      <g
         id="patch_59">
        <path
           d="M 839.673491 1246.609727  C 839.673491 1242.80049 838.670574 1239.057555 836.765955 1235.758658  C 834.861337 1232.459762 832.121318 1229.719743 828.822421 1227.815125  C 825.523525 1225.910506 821.780589 1224.90759 817.971352 1224.90759  C 814.162115 1224.90759 810.419179 1225.910507 807.120283 1227.815126  L 817.971353 1246.609727  z "
           style="fill: #1ae61a; stroke: #000000; stroke-width: 0.5; stroke-linejoin: miter"
           id="path87" />
      </g>
      <g
         id="patch_60">
        <path
           d="M 807.120283 1227.815126  C 803.821387 1229.719745 801.081368 1232.459764 799.17675 1235.75866  C 797.272132 1239.057557 796.269215 1242.800492 796.269216 1246.609729  C 796.269216 1250.418967 797.272133 1254.161902 799.176752 1257.460798  C 801.081371 1260.759694 803.82139 1263.499713 807.120287 1265.404331  L 817.971353 1246.609727  z "
           style="fill: #b26633; stroke: #000000; stroke-width: 0.5; stroke-linejoin: miter"
           id="path88" />
      </g>
      <g
         id="patch_61">
        <path
           d="M 807.120287 1265.404331  C 810.419183 1267.308949 814.162119 1268.311865 817.971356 1268.311865  C 821.780593 1268.311864 825.523529 1267.308947 828.822425 1265.404328  C 832.121321 1263.499709 834.861339 1260.759689 836.765957 1257.460793  C 838.670575 1254.161896 839.673491 1250.418961 839.673491 1246.609723  L 817.971353 1246.609727  z "
           style="fill: #66b2e6; stroke: #000000; stroke-width: 0.5; stroke-linejoin: miter"
           id="path89" />
      </g>
      <g
         id="patch_62">
        <path
           d="M 878.07487 762.393198  C 878.07487 759.5433 877.513502 756.721113 876.422893 754.08815  C 875.332284 751.455187 873.733643 749.062652 871.718461 747.04747  C 869.703278 745.032287 867.310744 743.433647 864.677781 742.343038  C 862.044818 741.252429 859.222631 740.691061 856.372732 740.691061  C 853.522834 740.691061 850.700647 741.252429 848.067684 742.343038  C 845.434721 743.433647 843.042186 745.032287 841.027004 747.04747  C 839.011821 749.062652 837.413181 751.455187 836.322572 754.08815  C 835.231963 756.721113 834.670595 759.5433 834.670595 762.393198  C 834.670595 765.243097 835.231963 768.065284 836.322572 770.698247  C 837.413181 773.33121 839.011821 775.723744 841.027004 777.738927  C 843.042186 779.754109 845.434721 781.35275 848.067684 782.443359  C 850.700647 783.533968 853.522834 784.095336 856.372732 784.095336  C 859.222631 784.095336 862.044818 783.533968 864.677781 782.443359  C 867.310744 781.35275 869.703278 779.754109 871.718461 777.738927  C 873.733643 775.723744 875.332284 773.33121 876.422893 770.698247  C 877.513502 768.065284 878.07487 765.243097 878.07487 762.393198  M 856.372732 762.393198  z "
           style="fill: #80e6cc; stroke: #000000; stroke-width: 0.5; stroke-linejoin: miter"
           id="path90" />
      </g>
      <g
         id="patch_64">
        <path
           d="M 711.541907 347.734037  C 711.541907 344.884139 710.980539 342.061952 709.889931 339.428989  C 708.799322 336.796026 707.200681 334.403492 705.185498 332.388309  C 703.170316 330.373126 700.777781 328.774486 698.144818 327.683877  C 695.511855 326.593268 692.689669 326.0319 689.83977 326.0319  C 686.989871 326.0319 684.167685 326.593268 681.534722 327.683877  C 678.901759 328.774486 676.509224 330.373126 674.494041 332.388309  C 672.478859 334.403492 670.880218 336.796026 669.789609 339.428989  C 668.699 342.061952 668.137633 344.884139 668.137633 347.734037  C 668.137633 350.583936 668.699 353.406123 669.789609 356.039086  C 670.880218 358.672049 672.478859 361.064583 674.494041 363.079766  C 676.509224 365.094949 678.901759 366.693589 681.534722 367.784198  C 684.167685 368.874807 686.989871 369.436175 689.83977 369.436175  C 692.689669 369.436175 695.511855 368.874807 698.144818 367.784198  C 700.777781 366.693589 703.170316 365.094949 705.185498 363.079766  C 707.200681 361.064583 708.799322 358.672049 709.889931 356.039086  C 710.980539 353.406123 711.541907 350.583936 711.541907 347.734037  M 689.83977 347.734037  z "
           style="fill: #4cccf2; stroke: #000000; stroke-width: 0.5; stroke-linejoin: miter"
           id="path92" />
      </g>
      <g
         id="patch_65">
        <path
           d="M 800.407801 1440.395389  C 800.407801 1430.326664 796.403749 1420.660028 789.284086 1413.540364  C 782.164422 1406.420701 772.497786 1402.416649 762.429061 1402.416649  C 752.360336 1402.416649 742.6937 1406.420701 735.574036 1413.540364  C 728.454372 1420.660028 724.45032 1430.326664 724.45032 1440.395389  L 762.429061 1440.395389  z "
           style="fill: #1ae61a; stroke: #000000; stroke-width: 0.5; stroke-linejoin: miter"
           id="path93" />
      </g>
      <g
         id="patch_66">
        <path
           d="M 724.45032 1440.395389  C 724.45032 1450.464115 728.454372 1460.13075 735.574036 1467.250414  C 742.6937 1474.370078 752.360336 1478.37413 762.429061 1478.37413  C 772.497786 1478.37413 782.164422 1474.370078 789.284086 1467.250414  C 796.403749 1460.13075 800.407801 1450.464115 800.407801 1440.395389  L 762.429061 1440.395389  z "
           style="fill: #66b2e6; stroke: #000000; stroke-width: 0.5; stroke-linejoin: miter"
           id="path94" />
      </g>
      <g
         id="patch_67">
        <path
           d="M 749.127652 1510.409461  C 749.127652 1509.696987 748.98731 1508.99144 748.714658 1508.333199  C 748.442006 1507.674958 748.042346 1507.076825 747.53855 1506.573029  C 747.034755 1506.069233 746.436621 1505.669573 745.77838 1505.396921  C 745.120139 1505.124269 744.414593 1504.983927 743.702118 1504.983927  C 742.989643 1504.983927 742.284097 1505.124269 741.625856 1505.396921  C 740.967615 1505.669573 740.369482 1506.069233 739.865686 1506.573029  C 739.36189 1507.076825 738.96223 1507.674958 738.689578 1508.333199  C 738.416926 1508.99144 738.276584 1509.696987 738.276584 1510.409461  C 738.276584 1511.121936 738.416926 1511.827483 738.689578 1512.485723  C 738.96223 1513.143964 739.36189 1513.742098 739.865686 1514.245893  C 740.369482 1514.749689 740.967615 1515.149349 741.625856 1515.422001  C 742.284097 1515.694654 742.989643 1515.834996 743.702118 1515.834996  C 744.414593 1515.834996 745.120139 1515.694654 745.77838 1515.422001  C 746.436621 1515.149349 747.034755 1514.749689 747.53855 1514.245893  C 748.042346 1513.742098 748.442006 1513.143964 748.714658 1512.485723  C 748.98731 1511.827483 749.127652 1511.121936 749.127652 1510.409461  M 743.702118 1510.409461  z "
           style="fill: #4cccf2; stroke: #000000; stroke-width: 0.5; stroke-linejoin: miter"
           id="path95" />
      </g>
      <g
         id="patch_68">
        <path
           d="M 822.08672 922.079192  C 822.08672 917.091869 821.104326 912.153042 819.19576 907.545357  C 817.287195 902.937672 814.489574 898.750736 810.963004 895.224167  C 807.436435 891.697597 803.249499 888.899976 798.641814 886.991411  C 794.034129 885.082845 789.095302 884.100451 784.10798 884.100451  C 779.120657 884.100451 774.18183 885.082845 769.574145 886.991411  C 764.96646 888.899976 760.779524 891.697597 757.252955 895.224167  C 753.726385 898.750736 750.928764 902.937672 749.020199 907.545357  C 747.111633 912.153042 746.129239 917.091869 746.129239 922.079192  C 746.129239 927.066514 747.111633 932.005341 749.020199 936.613026  C 750.928764 941.220712 753.726385 945.407647 757.252955 948.934217  C 760.779524 952.460786 764.96646 955.258407 769.574145 957.166973  C 774.18183 959.075538 779.120657 960.057932 784.10798 960.057932  C 789.095302 960.057932 794.034129 959.075538 798.641814 957.166973  C 803.249499 955.258407 807.436435 952.460786 810.963004 948.934217  C 814.489574 945.407647 817.287195 941.220712 819.19576 936.613026  C 821.104326 932.005341 822.08672 927.066514 822.08672 922.079192  M 784.10798 922.079192  z "
           style="fill: #b2b24c; stroke: #000000; stroke-width: 0.5; stroke-linejoin: miter"
           id="path96" />
      </g>
      <g
         id="patch_69">
        <path
           d="M 419.485576 1180.952649  C 419.485576 1180.240175 419.345234 1179.534628 419.072582 1178.876387  C 418.79993 1178.218146 418.40027 1177.620013 417.896474 1177.116217  C 417.392678 1176.612421 416.794545 1176.212761 416.136304 1175.940109  C 415.478063 1175.667457 414.772516 1175.527115 414.060042 1175.527115  C 413.347567 1175.527115 412.64202 1175.667457 411.98378 1175.940109  C 411.325539 1176.212761 410.727405 1176.612421 410.22361 1177.116217  C 409.719814 1177.620013 409.320154 1178.218146 409.047502 1178.876387  C 408.774849 1179.534628 408.634507 1180.240175 408.634507 1180.952649  C 408.634507 1181.665124 408.774849 1182.370671 409.047502 1183.028911  C 409.320154 1183.687152 409.719814 1184.285286 410.22361 1184.789081  C 410.727405 1185.292877 411.325539 1185.692537 411.98378 1185.965189  C 412.64202 1186.237842 413.347567 1186.378184 414.060042 1186.378184  C 414.772516 1186.378184 415.478063 1186.237842 416.136304 1185.965189  C 416.794545 1185.692537 417.392678 1185.292877 417.896474 1184.789081  C 418.40027 1184.285286 418.79993 1183.687152 419.072582 1183.028911  C 419.345234 1182.370671 419.485576 1181.665124 419.485576 1180.952649  M 414.060042 1180.952649  z "
           style="fill: #e68080; stroke: #000000; stroke-width: 0.5; stroke-linejoin: miter"
           id="path97" />
      </g>
      <g
         id="patch_71">
        <path
           d="M 540.846816 307.894111  C 540.846816 305.044213 540.285448 302.222026 539.194839 299.589063  C 538.104231 296.9561 536.50559 294.563566 534.490407 292.548383  C 532.475225 290.5332 530.08269 288.93456 527.449727 287.843951  C 524.816764 286.753342 521.994578 286.191974 519.144679 286.191974  C 516.29478 286.191974 513.472593 286.753342 510.839631 287.843951  C 508.206668 288.93456 505.814133 290.5332 503.79895 292.548383  C 501.783768 294.563566 500.185127 296.9561 499.094518 299.589063  C 498.003909 302.222026 497.442542 305.044213 497.442542 307.894111  C 497.442542 310.74401 498.003909 313.566197 499.094518 316.19916  C 500.185127 318.832123 501.783768 321.224657 503.79895 323.23984  C 505.814133 325.255023 508.206668 326.853663 510.839631 327.944272  C 513.472593 329.034881 516.29478 329.596249 519.144679 329.596249  C 521.994578 329.596249 524.816764 329.034881 527.449727 327.944272  C 530.08269 326.853663 532.475225 325.255023 534.490407 323.23984  C 536.50559 321.224657 538.104231 318.832123 539.194839 316.19916  C 540.285448 313.566197 540.846816 310.74401 540.846816 307.894111  M 519.144679 307.894111  z "
           style="fill: #b20066; stroke: #000000; stroke-width: 0.5; stroke-linejoin: miter"
           id="path99" />
      </g>
      <g
         id="matplotlib.axis_1" />
      <g
         id="matplotlib.axis_2" />
    </g>
  </g>
  <defs
     id="defs449">
    <clipPath
       id="p1a2cebc7f5">
      <rect
         x="7.2"
         y="7.2"
         width="1800"
         height="2033.913807"
         id="rect449" />
    </clipPath>
  </defs>
</svg>
